Playfair Display-Bold Italic.ufo
<glyph name="exclam" format="1">
  <advance width="348"/>
  <unicode hex="0021"/>
  <outline>
    <contour>
      <point x="154" y="196" type="line"/>
      <point x="211" y="395"/>
      <point x="371" y="550"/>
      <point x="371" y="690" type="curve" smooth="yes"/>
      <point x="371" y="753"/>
      <point x="339" y="782"/>
      <point x="287" y="782" type="curve" smooth="yes"/>
      <point x="176" y="782"/>
      <point x="144" y="649"/>
      <point x="144" y="548" type="curve" smooth="yes"/>
      <point x="144" y="427"/>
      <point x="164" y="319"/>
      <point x="136" y="199" type="curve"/>
    </contour>
    <component base="period" xOffset="37"/>
  </outline>
</glyph>
<glyph name="four" format="1">
  <advance width="549"/>
  <unicode hex="0034"/>
  <outline>
    <contour>
      <point x="-56" y="75" type="line"/>
      <point x="-62" y="54" type="line"/>
      <point x="477" y="54" type="line"/>
      <point x="483" y="75" type="line"/>
      <point x="-41" y="75" type="line"/>
      <point x="-39" y="64" type="line"/>
      <point x="458" y="511" type="line"/>
      <point x="452" y="533" type="line"/>
    </contour>
    <contour>
      <point x="452" y="533" type="line"/>
      <point x="250" y="339" type="line"/>
      <point x="120" y="-141" type="line"/>
      <point x="297" y="-141" type="line"/>
      <point x="478" y="533" type="line"/>
    </contour>
  </outline>
</glyph>
<glyph name="equal" format="1">
  <advance width="641"/>
  <unicode hex="003D"/>
  <outline>
    <contour>
      <point x="560" y="270" type="line"/>
      <point x="569" y="300" type="line"/>
      <point x="68" y="300" type="line"/>
      <point x="59" y="270" type="line"/>
    </contour>
    <contour>
      <point x="600" y="410" type="line"/>
      <point x="609" y="440" type="line"/>
      <point x="108" y="440" type="line"/>
      <point x="99" y="410" type="line"/>
    </contour>
  </outline>
</glyph>
<glyph name="greater" format="1">
  <advance width="591"/>
  <unicode hex="003E"/>
  <outline>
    <contour>
      <point x="580" y="372" type="line"/>
      <point x="151" y="603" type="line"/>
      <point x="135" y="574" type="line"/>
      <point x="505" y="376" type="line"/>
      <point x="45" y="184" type="line"/>
      <point x="55" y="155" type="line"/>
    </contour>
  </outline>
</glyph>
<glyph name="C" format="1">
  <advance width="708"/>
  <unicode hex="0043"/>
  <outline>
    <contour>
      <point x="747" y="708" type="line"/>
      <point x="727" y="653"/>
      <point x="709" y="636"/>
      <point x="692" y="657" type="curve" smooth="yes"/>
      <point x="663" y="691"/>
      <point x="624" y="722"/>
      <point x="544" y="722" type="curve" smooth="yes"/>
      <point x="249" y="722"/>
      <point x="37" y="481"/>
      <point x="37" y="242" type="curve" smooth="yes"/>
      <point x="37" y="82"/>
      <point x="125" y="-14"/>
      <point x="329" y="-14" type="curve" smooth="yes"/>
      <point x="409" y="-14"/>
      <point x="476" y="14"/>
      <point x="529" y="51" type="curve" smooth="yes"/>
      <point x="552" y="67"/>
      <point x="562" y="61"/>
      <point x="562" y="34" type="curve" smooth="yes"/>
      <point x="562" y="25"/>
      <point x="561" y="14"/>
      <point x="559" y="0" type="curve"/>
      <point x="581" y="0" type="line"/>
      <point x="590" y="51"/>
      <point x="607" y="119"/>
      <point x="640" y="240" type="curve"/>
      <point x="618" y="240" type="line"/>
      <point x="586" y="162"/>
      <point x="564" y="121"/>
      <point x="528" y="82" type="curve" smooth="yes"/>
      <point x="493" y="45"/>
      <point x="442" y="24"/>
      <point x="398" y="24" type="curve" smooth="yes"/>
      <point x="318" y="24"/>
      <point x="267" y="84"/>
      <point x="267" y="223" type="curve" smooth="yes"/>
      <point x="267" y="474"/>
      <point x="405" y="694"/>
      <point x="565" y="694" type="curve" smooth="yes"/>
      <point x="614" y="694"/>
      <point x="649" y="681"/>
      <point x="675" y="637" type="curve" smooth="yes"/>
      <point x="698" y="598"/>
      <point x="694" y="544"/>
      <point x="682" y="478" type="curve"/>
      <point x="704" y="478" type="line"/>
      <point x="727" y="585"/>
      <point x="748" y="656"/>
      <point x="768" y="708" type="curve"/>
    </contour>
    <contour>
      <point x="507" y="708" type="move" name="top"/>
    </contour>
    <contour>
      <point x="336" y="0" type="move" name="bottom"/>
    </contour>
  </outline>
</glyph>
<glyph name="G" format="1">
  <advance width="761"/>
  <unicode hex="0047"/>
  <outline>
    <contour>
      <point x="274" y="6"/>
      <point x="233" y="62"/>
      <point x="233" y="182" type="curve" smooth="yes"/>
      <point x="233" y="369"/>
      <point x="337" y="704"/>
      <point x="532" y="704" type="curve" smooth="yes"/>
      <point x="609" y="704"/>
      <point x="661" y="676"/>
      <point x="686" y="626" type="curve" smooth="yes"/>
      <point x="698" y="602"/>
      <point x="700" y="581"/>
      <point x="700" y="553" type="curve" smooth="yes"/>
      <point x="700" y="529"/>
      <point x="698" y="504"/>
      <point x="695" y="478" type="curve"/>
      <point x="717" y="478" type="line"/>
      <point x="740" y="585"/>
      <point x="761" y="656"/>
      <point x="781" y="708" type="curve"/>
      <point x="759" y="708" type="line"/>
      <point x="738" y="647"/>
      <point x="722" y="637"/>
      <point x="702" y="657" type="curve" smooth="yes"/>
      <point x="665" y="693"/>
      <point x="625" y="722"/>
      <point x="538" y="722" type="curve" smooth="yes"/>
      <point x="235" y="722"/>
      <point x="30" y="441"/>
      <point x="30" y="215" type="curve" smooth="yes"/>
      <point x="30" y="69"/>
      <point x="140" y="-14"/>
      <point x="320" y="-14" type="curve" smooth="yes"/>
      <point x="360" y="-14"/>
      <point x="399" y="-8"/>
      <point x="448" y="15" type="curve" smooth="yes"/>
      <point x="482" y="30"/>
      <point x="526" y="57"/>
      <point x="563" y="57" type="curve" smooth="yes"/>
      <point x="589" y="57"/>
      <point x="603" y="42"/>
      <point x="602" y="0" type="curve"/>
      <point x="622" y="0" type="line"/>
      <point x="675" y="198" type="line" smooth="yes"/>
      <point x="695" y="272"/>
      <point x="704" y="281"/>
      <point x="749" y="284" type="curve"/>
      <point x="754" y="304" type="line"/>
      <point x="718" y="302"/>
      <point x="657" y="301"/>
      <point x="589" y="301" type="curve" smooth="yes"/>
      <point x="529" y="301"/>
      <point x="444" y="302"/>
      <point x="399" y="304" type="curve"/>
      <point x="394" y="284" type="line"/>
      <point x="477" y="281"/>
      <point x="490" y="269"/>
      <point x="469" y="188" type="curve" smooth="yes"/>
      <point x="446" y="100" type="line" smooth="yes"/>
      <point x="434" y="55"/>
      <point x="428" y="34"/>
      <point x="408" y="20" type="curve" smooth="yes"/>
      <point x="393" y="9"/>
      <point x="373" y="6"/>
      <point x="356" y="6" type="curve" smooth="yes"/>
    </contour>
    <contour>
      <point x="528" y="708" type="move" name="top"/>
    </contour>
    <contour>
      <point x="350" y="0" type="move" name="bottom"/>
    </contour>
  </outline>
</glyph>
<glyph name="asciitilde" format="1">
  <advance width="643"/>
  <unicode hex="007E"/>
  <outline>
    <contour>
      <point x="486" y="197"/>
      <point x="571" y="270"/>
      <point x="613" y="384" type="curve"/>
      <point x="599" y="389" type="line"/>
      <point x="572" y="346"/>
      <point x="536" y="331"/>
      <point x="496" y="331" type="curve" smooth="yes"/>
      <point x="406" y="331"/>
      <point x="362" y="409"/>
      <point x="261" y="409" type="curve" smooth="yes"/>
      <point x="163" y="409"/>
      <point x="78" y="336"/>
      <point x="36" y="222" type="curve"/>
      <point x="50" y="217" type="line"/>
      <point x="77" y="260"/>
      <point x="113" y="275"/>
      <point x="153" y="275" type="curve" smooth="yes"/>
      <point x="243" y="275"/>
      <point x="287" y="197"/>
      <point x="388" y="197" type="curve" smooth="yes"/>
    </contour>
  </outline>
</glyph>
<glyph name="exclamdown" format="1">
  <advance width="328"/>
  <unicode hex="00A1"/>
  <outline>
    <contour>
      <point x="154" y="319" type="line"/>
      <point x="104" y="138"/>
      <point x="-48" y="-10"/>
      <point x="-48" y="-116" type="curve" smooth="yes"/>
      <point x="-48" y="-167"/>
      <point x="-12" y="-188"/>
      <point x="38" y="-188" type="curve" smooth="yes"/>
      <point x="126" y="-188"/>
      <point x="172" y="-139"/>
      <point x="172" y="-53" type="curve" smooth="yes"/>
      <point x="172" y="74"/>
      <point x="140" y="193"/>
      <point x="172" y="316" type="curve"/>
    </contour>
    <component base="period" xOffset="117" yOffset="375"/>
  </outline>
</glyph>
<glyph name="cent" format="1">
  <advance width="507"/>
  <unicode hex="00A2"/>
  <outline>
    <contour>
      <point x="371" y="708" type="line"/>
      <point x="132" y="-181" type="line"/>
      <point x="154" y="-181" type="line"/>
      <point x="393" y="708" type="line"/>
    </contour>
    <component base="c" xOffset="4"/>
  </outline>
</glyph>
<glyph name="yen" format="1">
  <advance width="825"/>
  <unicode hex="00A5"/>
  <outline>
    <contour>
      <point x="131" y="217" type="line"/>
      <point x="126" y="197" type="line"/>
      <point x="596" y="197" type="line"/>
      <point x="601" y="217" type="line"/>
    </contour>
    <contour>
      <point x="153" y="297" type="line"/>
      <point x="148" y="277" type="line"/>
      <point x="618" y="277" type="line"/>
      <point x="623" y="297" type="line"/>
    </contour>
    <component base="Y" xOffset="24"/>
  </outline>
</glyph>
<glyph name="guillemotright" format="1">
  <advance width="631"/>
  <unicode hex="00BB"/>
  <outline>
    <contour>
      <point x="338" y="533" type="line"/>
      <point x="337" y="449"/>
      <point x="366" y="312"/>
      <point x="397" y="259" type="curve"/>
      <point x="341" y="206"/>
      <point x="250" y="70"/>
      <point x="211" y="-14" type="curve"/>
      <point x="229" y="-14" type="line"/>
      <point x="345" y="82"/>
      <point x="459" y="171"/>
      <point x="594" y="249" type="curve"/>
      <point x="599" y="269" type="line"/>
      <point x="500" y="347"/>
      <point x="426" y="437"/>
      <point x="356" y="533" type="curve"/>
    </contour>
    <contour>
      <point x="112" y="493" type="line"/>
      <point x="109" y="421"/>
      <point x="130" y="304"/>
      <point x="151" y="259" type="curve"/>
      <point x="109" y="214"/>
      <point x="35" y="98"/>
      <point x="6" y="26" type="curve"/>
      <point x="24" y="26" type="line"/>
      <point x="122" y="106"/>
      <point x="222" y="183"/>
      <point x="338" y="249" type="curve"/>
      <point x="343" y="269" type="line"/>
      <point x="257" y="335"/>
      <point x="193" y="413"/>
      <point x="130" y="493" type="curve"/>
    </contour>
  </outline>
</glyph>
<glyph name="multiply" format="1">
  <advance width="485"/>
  <unicode hex="00D7"/>
  <outline>
    <contour>
      <point x="28" y="160" type="line"/>
      <point x="252" y="334" type="line"/>
      <point x="376" y="161" type="line"/>
      <point x="401" y="179" type="line"/>
      <point x="276" y="352" type="line"/>
      <point x="503" y="528" type="line"/>
      <point x="487" y="550" type="line"/>
      <point x="260" y="373" type="line"/>
      <point x="137" y="548" type="line"/>
      <point x="111" y="530" type="line"/>
      <point x="236" y="355" type="line"/>
      <point x="13" y="182" type="line"/>
    </contour>
  </outline>
</glyph>
<glyph name="ij" format="1">
  <advance width="645"/>
  <unicode hex="0133"/>
  <outline>
    <contour>
      <point x="267" y="55"/>
      <point x="239" y="33"/>
      <point x="212" y="33" type="curve" smooth="yes"/>
      <point x="186" y="33"/>
      <point x="180" y="54"/>
      <point x="190" y="85" type="curve" smooth="yes"/>
      <point x="294" y="393" type="line" smooth="yes"/>
      <point x="315" y="456"/>
      <point x="300" y="533"/>
      <point x="198" y="533" type="curve" smooth="yes"/>
      <point x="129" y="533"/>
      <point x="76" y="505"/>
      <point x="49" y="430" type="curve" smooth="yes"/>
      <point x="21" y="352" type="line"/>
      <point x="40" y="352" type="line"/>
      <point x="63" y="413" type="line" smooth="yes"/>
      <point x="81" y="461"/>
      <point x="98" y="476"/>
      <point x="118" y="476" type="curve" smooth="yes"/>
      <point x="132" y="476"/>
      <point x="137" y="463"/>
      <point x="127" y="434" type="curve" smooth="yes"/>
      <point x="35" y="158" type="line" smooth="yes"/>
      <point x="-4" y="41"/>
      <point x="38" y="-14"/>
      <point x="148" y="-14" type="curve" smooth="yes"/>
      <point x="209" y="-14"/>
      <point x="265" y="2"/>
      <point x="298" y="74" type="curve" smooth="yes"/>
      <point x="346" y="179"/>
      <point x="340" y="314"/>
      <point x="371" y="404" type="curve" smooth="yes"/>
      <point x="388" y="449"/>
      <point x="408" y="476"/>
      <point x="435" y="476" type="curve" smooth="yes"/>
      <point x="448" y="476"/>
      <point x="456" y="462"/>
      <point x="448" y="434" type="curve" smooth="yes"/>
      <point x="308" y="-65" type="line" smooth="yes"/>
      <point x="287" y="-140"/>
      <point x="259" y="-167"/>
      <point x="209" y="-173" type="curve"/>
      <point x="240" y="-156"/>
      <point x="254" y="-126"/>
      <point x="254" y="-102" type="curve" smooth="yes"/>
      <point x="254" y="-68"/>
      <point x="225" y="-35"/>
      <point x="178" y="-35" type="curve" smooth="yes"/>
      <point x="129" y="-35"/>
      <point x="90" y="-70"/>
      <point x="90" y="-116" type="curve" smooth="yes"/>
      <point x="90" y="-162"/>
      <point x="129" y="-188"/>
      <point x="217" y="-188" type="curve" smooth="yes"/>
      <point x="269" y="-188"/>
      <point x="345" y="-179"/>
      <point x="415" y="-121" type="curve" smooth="yes"/>
      <point x="469" y="-76"/>
      <point x="499" y="-20"/>
      <point x="536" y="115" type="curve" smooth="yes"/>
      <point x="612" y="393" type="line" smooth="yes"/>
      <point x="629" y="457"/>
      <point x="623" y="533"/>
      <point x="521" y="533" type="curve" smooth="yes"/>
      <point x="457" y="533"/>
      <point x="390" y="507"/>
      <point x="360" y="430" type="curve" smooth="yes"/>
      <point x="320" y="328"/>
      <point x="328" y="190"/>
      <point x="284" y="92" type="curve" smooth="yes"/>
    </contour>
    <component base="uni0307" xOffset="40"/>
    <component base="uni0307" xOffset="364"/>
  </outline>
</glyph>
<glyph name="kgreenlandic" format="1">
  <advance width="615"/>
  <unicode hex="0138"/>
  <outline>
    <contour>
      <point x="464" y="116" type="line" smooth="yes"/>
      <point x="486" y="254"/>
      <point x="359" y="272"/>
      <point x="231" y="263" type="curve"/>
      <point x="231" y="259" type="line"/>
      <point x="298" y="251"/>
      <point x="313" y="227"/>
      <point x="297" y="159" type="curve" smooth="yes"/>
      <point x="287" y="115" type="line" smooth="yes"/>
      <point x="268" y="32"/>
      <point x="298" y="-14"/>
      <point x="379" y="-14" type="curve" smooth="yes"/>
      <point x="438" y="-14"/>
      <point x="508" y="5"/>
      <point x="539" y="89" type="curve" smooth="yes"/>
      <point x="564" y="162" type="line"/>
      <point x="545" y="162" type="line"/>
      <point x="524" y="106" type="line" smooth="yes"/>
      <point x="503" y="50"/>
      <point x="483" y="43"/>
      <point x="471" y="43" type="curve" smooth="yes"/>
      <point x="459" y="43"/>
      <point x="453" y="49"/>
      <point x="459" y="85" type="curve" smooth="yes"/>
    </contour>
    <contour>
      <point x="487" y="514"/>
      <point x="498" y="509"/>
      <point x="503" y="501" type="curve"/>
      <point x="457" y="481"/>
      <point x="414" y="442"/>
      <point x="414" y="387" type="curve" smooth="yes"/>
      <point x="414" y="349"/>
      <point x="443" y="318"/>
      <point x="495" y="318" type="curve" smooth="yes"/>
      <point x="551" y="318"/>
      <point x="596" y="354"/>
      <point x="596" y="419" type="curve" smooth="yes"/>
      <point x="596" y="480"/>
      <point x="558" y="533"/>
      <point x="481" y="533" type="curve" smooth="yes"/>
      <point x="463" y="533"/>
      <point x="437" y="527"/>
      <point x="417" y="510" type="curve" smooth="yes"/>
      <point x="355" y="457"/>
      <point x="374" y="279"/>
      <point x="235" y="270" type="curve"/>
      <point x="233" y="259" type="line"/>
      <point x="243" y="260" type="line"/>
      <point x="386" y="257"/>
      <point x="376" y="451"/>
      <point x="432" y="498" type="curve" smooth="yes"/>
      <point x="445" y="509"/>
      <point x="459" y="514"/>
      <point x="478" y="514" type="curve" smooth="yes"/>
    </contour>
    <contour>
      <point x="283" y="393" type="line" smooth="yes"/>
      <point x="300" y="457"/>
      <point x="289" y="533"/>
      <point x="184" y="533" type="curve" smooth="yes"/>
      <point x="115" y="533"/>
      <point x="72" y="500"/>
      <point x="47" y="430" type="curve" smooth="yes"/>
      <point x="19" y="352" type="line"/>
      <point x="38" y="352" type="line"/>
      <point x="61" y="413" type="line" smooth="yes"/>
      <point x="79" y="461"/>
      <point x="96" y="476"/>
      <point x="116" y="476" type="curve" smooth="yes"/>
      <point x="134" y="476"/>
      <point x="134" y="465"/>
      <point x="125" y="434" type="curve" smooth="yes"/>
      <point x="3" y="0" type="line"/>
      <point x="3" y="0"/>
      <point x="180" y="0"/>
      <point x="180" y="0" type="curve"/>
    </contour>
  </outline>
</glyph>
<glyph name="tbar" format="1">
  <advance width="365"/>
  <unicode hex="0167"/>
  <outline>
    <contour>
      <point x="30" y="421" type="line"/>
      <point x="25" y="401" type="line"/>
      <point x="395" y="401" type="line"/>
      <point x="398" y="421" type="line"/>
    </contour>
    <component base="t"/>
  </outline>
</glyph>
<glyph name="pi" format="1">
  <advance width="597"/>
  <unicode hex="03C0"/>
  <outline>
    <contour>
      <point x="38" y="269" type="line"/>
      <point x="85" y="322"/>
      <point x="134" y="339"/>
      <point x="229" y="339" type="curve" smooth="yes"/>
      <point x="547" y="339" type="line"/>
      <point x="547" y="339"/>
      <point x="602" y="513"/>
      <point x="602" y="513" type="curve"/>
      <point x="314" y="513" type="line" smooth="yes"/>
      <point x="154" y="513"/>
      <point x="80" y="423"/>
      <point x="22" y="276" type="curve"/>
    </contour>
    <contour>
      <point x="367" y="343" type="line"/>
      <point x="367" y="343"/>
      <point x="299" y="205"/>
      <point x="277" y="126" type="curve" smooth="yes"/>
      <point x="263" y="76"/>
      <point x="256" y="-14"/>
      <point x="344" y="-14" type="curve" smooth="yes"/>
      <point x="457" y="-14"/>
      <point x="533" y="177"/>
      <point x="562" y="260" type="curve"/>
      <point x="545" y="267" type="line"/>
      <point x="502" y="208"/>
      <point x="457" y="183"/>
      <point x="413" y="183" type="curve" smooth="yes"/>
      <point x="359" y="183"/>
      <point x="346" y="225"/>
      <point x="363" y="276" type="curve" smooth="yes"/>
      <point x="387" y="344" type="line"/>
    </contour>
    <contour>
      <point x="265" y="350" type="line"/>
      <point x="231" y="224"/>
      <point x="149" y="206"/>
      <point x="71" y="171" type="curve" smooth="yes"/>
      <point x="4" y="141"/>
      <point x="-25" y="98"/>
      <point x="-25" y="53" type="curve" smooth="yes"/>
      <point x="-25" y="15"/>
      <point x="3" y="-14"/>
      <point x="50" y="-14" type="curve" smooth="yes"/>
      <point x="94" y="-14"/>
      <point x="139" y="9"/>
      <point x="174" y="54" type="curve" smooth="yes"/>
      <point x="203" y="91"/>
      <point x="242" y="166"/>
      <point x="283" y="350" type="curve"/>
    </contour>
  </outline>
</glyph>
<glyph name="uni0404" format="1">
  <advance width="717"/>
  <unicode hex="0404"/>
  <outline>
    <contour>
      <point x="581" y="249"/>
      <point x="634" y="315"/>
      <point x="695" y="432" type="curve"/>
      <point x="682" y="441" type="line"/>
      <point x="654" y="407"/>
      <point x="630" y="397"/>
      <point x="605" y="397" type="curve" smooth="yes"/>
      <point x="538" y="397"/>
      <point x="506" y="469"/>
      <point x="436" y="469" type="curve" smooth="yes"/>
      <point x="375" y="469"/>
      <point x="332" y="417"/>
      <point x="271" y="301" type="curve"/>
      <point x="268" y="273" type="line"/>
      <point x="291" y="314"/>
      <point x="307" y="321"/>
      <point x="329" y="321" type="curve" smooth="yes"/>
      <point x="401" y="321"/>
      <point x="439" y="249"/>
      <point x="512" y="249" type="curve" smooth="yes"/>
    </contour>
    <component base="C"/>
  </outline>
</glyph>
<glyph name="uni0416" format="1">
  <advance width="1080"/>
  <unicode hex="0416"/>
  <outline>
    <contour>
      <point x="721" y="602" type="line" smooth="yes"/>
      <point x="740" y="675"/>
      <point x="755" y="685"/>
      <point x="824" y="688" type="curve"/>
      <point x="829" y="708" type="line"/>
      <point x="782" y="706"/>
      <point x="718" y="705"/>
      <point x="647" y="705" type="curve" smooth="yes"/>
      <point x="576" y="705"/>
      <point x="503" y="706"/>
      <point x="464" y="708" type="curve"/>
      <point x="459" y="688" type="line"/>
      <point x="535" y="683"/>
      <point x="532" y="661"/>
      <point x="517" y="602" type="curve" smooth="yes"/>
      <point x="386" y="106" type="line" smooth="yes"/>
      <point x="367" y="33"/>
      <point x="350" y="23"/>
      <point x="285" y="20" type="curve"/>
      <point x="280" y="0" type="line"/>
      <point x="321" y="2"/>
      <point x="392" y="3"/>
      <point x="463" y="3" type="curve" smooth="yes"/>
      <point x="534" y="3"/>
      <point x="603" y="2"/>
      <point x="644" y="0" type="curve"/>
      <point x="648" y="20" type="line"/>
      <point x="569" y="24"/>
      <point x="574" y="46"/>
      <point x="590" y="106" type="curve" smooth="yes"/>
    </contour>
    <contour>
      <point x="928" y="71"/>
      <point x="918" y="82"/>
      <point x="921" y="98" type="curve" smooth="yes"/>
      <point x="937" y="198" type="line" smooth="yes"/>
      <point x="965" y="350"/>
      <point x="864" y="370"/>
      <point x="726" y="375" type="curve"/>
      <point x="724" y="365" type="line"/>
      <point x="759" y="345"/>
      <point x="757" y="321"/>
      <point x="749" y="277" type="curve" smooth="yes"/>
      <point x="721" y="119" type="line" smooth="yes"/>
      <point x="707" y="42"/>
      <point x="758" y="-14"/>
      <point x="849" y="-14" type="curve" smooth="yes"/>
      <point x="918" y="-14"/>
      <point x="972" y="18"/>
      <point x="997" y="93" type="curve" smooth="yes"/>
      <point x="1023" y="170" type="line"/>
      <point x="1003" y="170" type="line"/>
      <point x="986" y="119" type="line" smooth="yes"/>
      <point x="976" y="89"/>
      <point x="963" y="71"/>
      <point x="943" y="71" type="curve" smooth="yes"/>
    </contour>
    <contour>
      <point x="738" y="378" type="line"/>
      <point x="719" y="386"/>
      <point x="714" y="389"/>
      <point x="703" y="389" type="curve" smooth="yes"/>
      <point x="688" y="389"/>
      <point x="680" y="383"/>
      <point x="677" y="369" type="curve" smooth="yes"/>
      <point x="674" y="356"/>
      <point x="679" y="349"/>
      <point x="695" y="349" type="curve" smooth="yes"/>
      <point x="705" y="349"/>
      <point x="719" y="352"/>
      <point x="738" y="360" type="curve"/>
    </contour>
    <contour>
      <point x="1008" y="705"/>
      <point x="1018" y="704"/>
      <point x="1029" y="701" type="curve"/>
      <point x="964" y="681"/>
      <point x="920" y="628"/>
      <point x="920" y="572" type="curve" smooth="yes"/>
      <point x="920" y="517"/>
      <point x="962" y="490"/>
      <point x="1008" y="490" type="curve" smooth="yes"/>
      <point x="1077" y="490"/>
      <point x="1118" y="552"/>
      <point x="1118" y="611" type="curve" smooth="yes"/>
      <point x="1118" y="678"/>
      <point x="1066" y="722"/>
      <point x="1003" y="722" type="curve" smooth="yes"/>
      <point x="974" y="722"/>
      <point x="937" y="713"/>
      <point x="910" y="680" type="curve" smooth="yes"/>
      <point x="844" y="598"/>
      <point x="862" y="393"/>
      <point x="727" y="378" type="curve"/>
      <point x="725" y="368" type="line"/>
      <point x="881" y="367"/>
      <point x="864" y="565"/>
      <point x="922" y="662" type="curve" smooth="yes"/>
      <point x="940" y="692"/>
      <point x="966" y="705"/>
      <point x="998" y="705" type="curve" smooth="yes"/>
    </contour>
    <contour>
      <point x="-46" y="91" type="line"/>
      <point x="-24" y="16"/>
      <point x="10" y="-14"/>
      <point x="89" y="-14" type="curve" smooth="yes"/>
      <point x="175" y="-14"/>
      <point x="222" y="22"/>
      <point x="259" y="119" type="curve" smooth="yes"/>
      <point x="319" y="277" type="line" smooth="yes"/>
      <point x="338" y="327"/>
      <point x="354" y="350"/>
      <point x="393" y="365" type="curve"/>
      <point x="396" y="375" type="line"/>
      <point x="204" y="373"/>
      <point x="130" y="312"/>
      <point x="87" y="198" type="curve" smooth="yes"/>
      <point x="49" y="98" type="line" smooth="yes"/>
      <point x="43" y="82"/>
      <point x="28" y="71"/>
      <point x="11" y="71" type="curve" smooth="yes"/>
      <point x="-4" y="71"/>
      <point x="-20" y="80"/>
      <point x="-29" y="100" type="curve"/>
    </contour>
    <contour>
      <point x="376" y="360" type="line"/>
      <point x="391" y="352"/>
      <point x="400" y="349"/>
      <point x="410" y="349" type="curve" smooth="yes"/>
      <point x="426" y="349"/>
      <point x="433" y="356"/>
      <point x="436" y="369" type="curve" smooth="yes"/>
      <point x="441" y="387"/>
      <point x="429" y="392"/>
      <point x="386" y="378" type="curve"/>
    </contour>
    <contour>
      <point x="326" y="705"/>
      <point x="341" y="681"/>
      <point x="345" y="658" type="curve" smooth="yes"/>
      <point x="354" y="605"/>
      <point x="315" y="506"/>
      <point x="315" y="441" type="curve" smooth="yes"/>
      <point x="315" y="397"/>
      <point x="333" y="367"/>
      <point x="393" y="368" type="curve"/>
      <point x="397" y="378" type="line"/>
      <point x="344" y="384"/>
      <point x="335" y="409"/>
      <point x="335" y="442" type="curve" smooth="yes"/>
      <point x="335" y="514"/>
      <point x="378" y="607"/>
      <point x="364" y="669" type="curve" smooth="yes"/>
      <point x="355" y="709"/>
      <point x="326" y="722"/>
      <point x="288" y="722" type="curve" smooth="yes"/>
      <point x="202" y="722"/>
      <point x="114" y="654"/>
      <point x="114" y="571" type="curve" smooth="yes"/>
      <point x="114" y="523"/>
      <point x="144" y="490"/>
      <point x="193" y="490" type="curve" smooth="yes"/>
      <point x="247" y="490"/>
      <point x="315" y="530"/>
      <point x="315" y="612" type="curve" smooth="yes"/>
      <point x="315" y="649"/>
      <point x="301" y="683"/>
      <point x="273" y="702" type="curve"/>
      <point x="280" y="704"/>
      <point x="289" y="705"/>
      <point x="296" y="705" type="curve" smooth="yes"/>
    </contour>
  </outline>
</glyph>
<glyph name="uni0436" format="1">
  <advance width="1150"/>
  <unicode hex="0436"/>
  <outline>
    <contour>
      <point x="379" y="259" type="line"/>
      <point x="769" y="259" type="line"/>
      <point x="769" y="279" type="line"/>
      <point x="379" y="279" type="line"/>
    </contour>
    <contour>
      <point x="72" y="391" type="line"/>
      <point x="115" y="455"/>
      <point x="161" y="471"/>
      <point x="193" y="471" type="curve" smooth="yes"/>
      <point x="236" y="471"/>
      <point x="256" y="441"/>
      <point x="256" y="360" type="curve" smooth="yes"/>
      <point x="256" y="195"/>
      <point x="173" y="6"/>
      <point x="82" y="6" type="curve" smooth="yes"/>
      <point x="69" y="6"/>
      <point x="58" y="10"/>
      <point x="49" y="18" type="curve"/>
      <point x="105" y="35"/>
      <point x="151" y="90"/>
      <point x="151" y="149" type="curve" smooth="yes"/>
      <point x="151" y="199"/>
      <point x="118" y="221"/>
      <point x="82" y="221" type="curve" smooth="yes"/>
      <point x="20" y="221"/>
      <point x="-34" y="154"/>
      <point x="-34" y="91" type="curve" smooth="yes"/>
      <point x="-34" y="34"/>
      <point x="9" y="-14"/>
      <point x="102" y="-14" type="curve" smooth="yes"/>
      <point x="298" y="-14"/>
      <point x="433" y="202"/>
      <point x="433" y="371" type="curve" smooth="yes"/>
      <point x="433" y="485"/>
      <point x="372" y="533"/>
      <point x="281" y="533" type="curve" smooth="yes"/>
      <point x="174" y="533"/>
      <point x="99" y="467"/>
      <point x="56" y="399" type="curve"/>
    </contour>
    <contour>
      <point x="408" y="0" type="line"/>
      <point x="408" y="0"/>
      <point x="585" y="0"/>
      <point x="585" y="0" type="curve"/>
      <point x="725" y="533" type="line"/>
      <point x="673" y="524"/>
      <point x="613" y="520"/>
      <point x="544" y="519" type="curve"/>
    </contour>
    <contour>
      <point x="1062" y="513"/>
      <point x="1073" y="509"/>
      <point x="1082" y="501" type="curve"/>
      <point x="1026" y="484"/>
      <point x="980" y="429"/>
      <point x="980" y="370" type="curve" smooth="yes"/>
      <point x="980" y="320"/>
      <point x="1013" y="298"/>
      <point x="1049" y="298" type="curve" smooth="yes"/>
      <point x="1111" y="298"/>
      <point x="1165" y="365"/>
      <point x="1165" y="428" type="curve" smooth="yes"/>
      <point x="1165" y="485"/>
      <point x="1122" y="533"/>
      <point x="1029" y="533" type="curve" smooth="yes"/>
      <point x="833" y="533"/>
      <point x="698" y="317"/>
      <point x="698" y="148" type="curve" smooth="yes"/>
      <point x="698" y="34"/>
      <point x="759" y="-14"/>
      <point x="850" y="-14" type="curve" smooth="yes"/>
      <point x="957" y="-14"/>
      <point x="1032" y="52"/>
      <point x="1075" y="120" type="curve"/>
      <point x="1055" y="128" type="line"/>
      <point x="1016" y="71"/>
      <point x="976" y="48"/>
      <point x="938" y="48" type="curve" smooth="yes"/>
      <point x="895" y="48"/>
      <point x="875" y="78"/>
      <point x="875" y="159" type="curve" smooth="yes"/>
      <point x="875" y="324"/>
      <point x="958" y="513"/>
      <point x="1049" y="513" type="curve" smooth="yes"/>
    </contour>
  </outline>
</glyph>
<glyph name="uni043C" format="1">
  <advance width="836"/>
  <unicode hex="043C"/>
  <outline>
    <contour>
      <point x="820" y="533" type="line"/>
      <point x="768" y="524"/>
      <point x="708" y="520"/>
      <point x="639" y="519" type="curve"/>
      <point x="529" y="126" type="line" smooth="yes"/>
      <point x="519" y="88"/>
      <point x="517" y="51"/>
      <point x="533" y="25" type="curve" smooth="yes"/>
      <point x="547" y="2"/>
      <point x="578" y="-14"/>
      <point x="626" y="-14" type="curve" smooth="yes"/>
      <point x="690" y="-14"/>
      <point x="745" y="14"/>
      <point x="772" y="89" type="curve" smooth="yes"/>
      <point x="800" y="167" type="line"/>
      <point x="781" y="167" type="line"/>
      <point x="758" y="106" type="line" smooth="yes"/>
      <point x="740" y="58"/>
      <point x="723" y="43"/>
      <point x="703" y="43" type="curve" smooth="yes"/>
      <point x="685" y="43"/>
      <point x="685" y="54"/>
      <point x="694" y="85" type="curve" smooth="yes"/>
    </contour>
    <contour>
      <point x="246" y="513" type="line"/>
      <point x="229" y="388"/>
      <point x="195" y="75"/>
      <point x="91" y="14" type="curve" smooth="yes"/>
      <point x="80" y="8"/>
      <point x="68" y="5"/>
      <point x="53" y="5" type="curve" smooth="yes"/>
      <point x="45" y="5"/>
      <point x="39" y="6"/>
      <point x="36" y="8" type="curve"/>
      <point x="84" y="29"/>
      <point x="125" y="71"/>
      <point x="125" y="120" type="curve" smooth="yes"/>
      <point x="125" y="161"/>
      <point x="96" y="191"/>
      <point x="44" y="191" type="curve" smooth="yes"/>
      <point x="-11" y="191"/>
      <point x="-57" y="156"/>
      <point x="-57" y="90" type="curve" smooth="yes"/>
      <point x="-57" y="34"/>
      <point x="-24" y="-14"/>
      <point x="50" y="-14" type="curve" smooth="yes"/>
      <point x="65" y="-14"/>
      <point x="83" y="-12"/>
      <point x="104" y="1" type="curve" smooth="yes"/>
      <point x="208" y="67"/>
      <point x="242" y="330"/>
      <point x="262" y="498" type="curve"/>
    </contour>
    <contour>
      <point x="343" y="-5" type="line"/>
      <point x="458" y="204" type="line"/>
      <point x="410" y="533" type="line"/>
      <point x="364" y="524"/>
      <point x="303" y="520"/>
      <point x="242" y="519" type="curve"/>
      <point x="324" y="-5" type="line"/>
    </contour>
    <contour>
      <point x="343" y="-5" type="line"/>
      <point x="655" y="499" type="line"/>
      <point x="640" y="510" type="line"/>
      <point x="353" y="48" type="line"/>
    </contour>
  </outline>
</glyph>
<glyph name="uni0444" format="1">
  <advance width="858"/>
  <unicode hex="0444"/>
  <outline>
    <contour>
      <point x="643" y="466"/>
      <point x="657" y="456"/>
      <point x="657" y="385" type="curve" smooth="yes"/>
      <point x="657" y="220"/>
      <point x="560" y="19"/>
      <point x="465" y="19" type="curve" smooth="yes"/>
      <point x="451" y="19"/>
      <point x="442" y="22"/>
      <point x="431" y="26" type="curve"/>
      <point x="424" y="13" type="line"/>
      <point x="445" y="-2"/>
      <point x="485" y="-14"/>
      <point x="530" y="-14" type="curve" smooth="yes"/>
      <point x="723" y="-14"/>
      <point x="833" y="214"/>
      <point x="833" y="370" type="curve" smooth="yes"/>
      <point x="833" y="474"/>
      <point x="789" y="533"/>
      <point x="696" y="533" type="curve" smooth="yes"/>
      <point x="620" y="533"/>
      <point x="564" y="474"/>
      <point x="516" y="336" type="curve"/>
      <point x="497" y="238" type="line"/>
      <point x="526" y="361"/>
      <point x="580" y="466"/>
      <point x="623" y="466" type="curve" smooth="yes"/>
    </contour>
    <contour>
      <point x="183" y="48"/>
      <point x="176" y="67"/>
      <point x="176" y="105" type="curve" smooth="yes"/>
      <point x="176" y="315"/>
      <point x="298" y="510"/>
      <point x="361" y="510" type="curve" smooth="yes"/>
      <point x="387" y="510"/>
      <point x="391" y="495"/>
      <point x="397" y="468" type="curve"/>
      <point x="405" y="488" type="line"/>
      <point x="401" y="514"/>
      <point x="390" y="533"/>
      <point x="338" y="533" type="curve" smooth="yes"/>
      <point x="116" y="533"/>
      <point x="-1" y="278"/>
      <point x="-1" y="132" type="curve" smooth="yes"/>
      <point x="-1" y="28"/>
      <point x="59" y="-14"/>
      <point x="128" y="-14" type="curve" smooth="yes"/>
      <point x="245" y="-14"/>
      <point x="291" y="83"/>
      <point x="349" y="268" type="curve"/>
      <point x="364" y="376" type="line"/>
      <point x="308" y="132"/>
      <point x="241" y="48"/>
      <point x="210" y="48" type="curve" smooth="yes"/>
    </contour>
    <contour>
      <point x="716" y="762"/>
      <point x="724" y="760"/>
      <point x="733" y="756" type="curve"/>
      <point x="677" y="735"/>
      <point x="644" y="689"/>
      <point x="644" y="638" type="curve" smooth="yes"/>
      <point x="644" y="594"/>
      <point x="675" y="570"/>
      <point x="724" y="570" type="curve" smooth="yes"/>
      <point x="789" y="570"/>
      <point x="832" y="623"/>
      <point x="832" y="670" type="curve" smooth="yes"/>
      <point x="832" y="739"/>
      <point x="773" y="782"/>
      <point x="675" y="782" type="curve" smooth="yes"/>
      <point x="616" y="782"/>
      <point x="566" y="769"/>
      <point x="524" y="738" type="curve" smooth="yes"/>
      <point x="467" y="696"/>
      <point x="425" y="621"/>
      <point x="395" y="504" type="curve"/>
      <point x="209" y="-188" type="line"/>
      <point x="265" y="-179"/>
      <point x="318" y="-175"/>
      <point x="390" y="-174" type="curve"/>
      <point x="610" y="647" type="line" smooth="yes"/>
      <point x="624" y="700"/>
      <point x="639" y="730"/>
      <point x="658" y="746" type="curve" smooth="yes"/>
      <point x="672" y="758"/>
      <point x="688" y="762"/>
      <point x="707" y="762" type="curve" smooth="yes"/>
    </contour>
  </outline>
</glyph>
<glyph name="uni0446" format="1">
  <advance width="619"/>
  <unicode hex="0446"/>
  <outline>
    <contour>
      <point x="333" y="-42"/>
      <point x="318" y="-175"/>
      <point x="394" y="-175" type="curve" smooth="yes"/>
      <point x="460" y="-175"/>
      <point x="497" y="-75"/>
      <point x="556" y="102" type="curve"/>
      <point x="542" y="111" type="line"/>
      <point x="498" y="-28"/>
      <point x="479" y="-54"/>
      <point x="429" y="-54" type="curve" smooth="yes"/>
      <point x="374" y="-54"/>
      <point x="331" y="-19"/>
      <point x="245" y="-19" type="curve" smooth="yes"/>
      <point x="145" y="-19"/>
      <point x="82" y="-67"/>
      <point x="82" y="-124" type="curve" smooth="yes"/>
      <point x="82" y="-164"/>
      <point x="113" y="-188"/>
      <point x="161" y="-188" type="curve" smooth="yes"/>
      <point x="227" y="-188"/>
      <point x="270" y="-142"/>
      <point x="270" y="-94" type="curve" smooth="yes"/>
      <point x="270" y="-64"/>
      <point x="261" y="-50"/>
      <point x="249" y="-32" type="curve"/>
    </contour>
    <component base="u"/>
  </outline>
</glyph>
<glyph name="uni044B" format="1">
  <advance width="838"/>
  <unicode hex="044B"/>
  <outline>
    <contour>
      <point x="822" y="533" type="line"/>
      <point x="770" y="524"/>
      <point x="710" y="520"/>
      <point x="641" y="519" type="curve"/>
      <point x="531" y="126" type="line" smooth="yes"/>
      <point x="521" y="88"/>
      <point x="519" y="51"/>
      <point x="535" y="25" type="curve" smooth="yes"/>
      <point x="549" y="2"/>
      <point x="580" y="-14"/>
      <point x="628" y="-14" type="curve" smooth="yes"/>
      <point x="692" y="-14"/>
      <point x="747" y="14"/>
      <point x="774" y="89" type="curve" smooth="yes"/>
      <point x="802" y="167" type="line"/>
      <point x="783" y="167" type="line"/>
      <point x="760" y="106" type="line" smooth="yes"/>
      <point x="742" y="58"/>
      <point x="725" y="43"/>
      <point x="705" y="43" type="curve" smooth="yes"/>
      <point x="687" y="43"/>
      <point x="687" y="54"/>
      <point x="696" y="85" type="curve" smooth="yes"/>
    </contour>
    <component base="uni044C"/>
  </outline>
</glyph>
<glyph name="uni044C" format="1">
  <advance width="543"/>
  <unicode hex="044C"/>
  <outline>
    <contour>
      <point x="313" y="288"/>
      <point x="258" y="266"/>
      <point x="226" y="221" type="curve"/>
      <point x="223" y="202" type="line"/>
      <point x="236" y="225"/>
      <point x="255" y="237"/>
      <point x="278" y="237" type="curve" smooth="yes"/>
      <point x="307" y="237"/>
      <point x="323" y="219"/>
      <point x="323" y="178" type="curve" smooth="yes"/>
      <point x="323" y="92"/>
      <point x="279" y="4"/>
      <point x="227" y="4" type="curve" smooth="yes"/>
      <point x="189" y="4"/>
      <point x="172" y="45"/>
      <point x="220" y="191" type="curve" smooth="yes"/>
      <point x="276" y="361" type="line" smooth="yes"/>
      <point x="315" y="478"/>
      <point x="274" y="533"/>
      <point x="185" y="533" type="curve" smooth="yes"/>
      <point x="132" y="533"/>
      <point x="71" y="514"/>
      <point x="42" y="430" type="curve" smooth="yes"/>
      <point x="17" y="357" type="line"/>
      <point x="36" y="357" type="line"/>
      <point x="57" y="413" type="line" smooth="yes"/>
      <point x="78" y="469"/>
      <point x="98" y="476"/>
      <point x="110" y="476" type="curve" smooth="yes"/>
      <point x="122" y="476"/>
      <point x="133" y="468"/>
      <point x="122" y="434" type="curve" smooth="yes"/>
      <point x="52" y="220" type="line" smooth="yes"/>
      <point x="-9" y="34"/>
      <point x="82" y="-14"/>
      <point x="207" y="-14" type="curve" smooth="yes"/>
      <point x="395" y="-14"/>
      <point x="493" y="75"/>
      <point x="493" y="180" type="curve" smooth="yes"/>
      <point x="493" y="248"/>
      <point x="442" y="288"/>
      <point x="369" y="288" type="curve" smooth="yes"/>
    </contour>
  </outline>
</glyph>
<glyph name="uni0454" format="1">
  <advance width="493"/>
  <unicode hex="0454"/>
  <outline>
    <contour>
      <point x="405" y="513"/>
      <point x="421" y="509"/>
      <point x="436" y="501" type="curve"/>
      <point x="373" y="489"/>
      <point x="314" y="453"/>
      <point x="314" y="408" type="curve" smooth="yes"/>
      <point x="314" y="375"/>
      <point x="352" y="358"/>
      <point x="392" y="358" type="curve" smooth="yes"/>
      <point x="460" y="358"/>
      <point x="509" y="405"/>
      <point x="509" y="449" type="curve" smooth="yes"/>
      <point x="509" y="495"/>
      <point x="458" y="533"/>
      <point x="369" y="533" type="curve" smooth="yes"/>
      <point x="144" y="533"/>
      <point x="2" y="317"/>
      <point x="2" y="144" type="curve" smooth="yes"/>
      <point x="2" y="35"/>
      <point x="78" y="-14"/>
      <point x="180" y="-14" type="curve" smooth="yes"/>
      <point x="295" y="-14"/>
      <point x="366" y="53"/>
      <point x="409" y="120" type="curve"/>
      <point x="389" y="128" type="line"/>
      <point x="347" y="66"/>
      <point x="308" y="48"/>
      <point x="269" y="48" type="curve" smooth="yes"/>
      <point x="221" y="48"/>
      <point x="189" y="78"/>
      <point x="189" y="150" type="curve" smooth="yes"/>
      <point x="189" y="327"/>
      <point x="282" y="513"/>
      <point x="382" y="513" type="curve" smooth="yes"/>
    </contour>
    <contour>
      <point x="294" y="235"/>
      <point x="305" y="187"/>
      <point x="345" y="187" type="curve" smooth="yes"/>
      <point x="387" y="187"/>
      <point x="424" y="240"/>
      <point x="464" y="321" type="curve"/>
      <point x="451" y="328" type="line"/>
      <point x="428" y="293"/>
      <point x="409" y="281"/>
      <point x="391" y="281" type="curve" smooth="yes"/>
      <point x="358" y="281"/>
      <point x="338" y="320"/>
      <point x="297" y="320" type="curve" smooth="yes"/>
      <point x="259" y="320"/>
      <point x="221" y="285"/>
      <point x="184" y="203" type="curve"/>
      <point x="189" y="198" type="line"/>
      <point x="208" y="227"/>
      <point x="231" y="235"/>
      <point x="249" y="235" type="curve" smooth="yes"/>
    </contour>
  </outline>
</glyph>
<glyph name="emdash" format="1">
  <advance width="958"/>
  <unicode hex="2014"/>
  <outline>
    <contour>
      <point x="45" y="202" type="line"/>
      <point x="853" y="202" type="line"/>
      <point x="895" y="341" type="line"/>
      <point x="87" y="341" type="line"/>
    </contour>
  </outline>
</glyph>
<glyph name="daggerdbl" format="1">
  <advance width="392"/>
  <unicode hex="2021"/>
  <outline>
    <contour>
      <point x="220" y="435" type="line"/>
      <point x="208" y="415"/>
      <point x="204" y="396"/>
      <point x="184" y="385" type="curve"/>
      <point x="171" y="338"/>
      <point x="175" y="349"/>
      <point x="152" y="248" type="curve"/>
      <point x="121" y="147"/>
      <point x="122" y="153"/>
      <point x="109" y="106" type="curve"/>
      <point x="123" y="95"/>
      <point x="117" y="76"/>
      <point x="119" y="56" type="curve"/>
      <point x="131" y="50" type="line"/>
      <point x="147" y="56" type="line"/>
      <point x="158" y="76"/>
      <point x="163" y="95"/>
      <point x="183" y="106" type="curve"/>
      <point x="196" y="153"/>
      <point x="193" y="147"/>
      <point x="216" y="248" type="curve"/>
      <point x="248" y="350"/>
      <point x="245" y="338"/>
      <point x="258" y="385" type="curve"/>
      <point x="244" y="396"/>
      <point x="249" y="415"/>
      <point x="248" y="435" type="curve"/>
      <point x="236" y="441" type="line"/>
    </contour>
    <contour>
      <point x="119" y="21" type="line"/>
      <point x="92" y="7"/>
      <point x="77" y="-121"/>
      <point x="55" y="-121" type="curve"/>
      <point x="51" y="-137"/>
      <point x="48" y="-166"/>
      <point x="73" y="-166" type="curve" smooth="yes"/>
      <point x="98" y="-166"/>
      <point x="111" y="-137"/>
      <point x="115" y="-121" type="curve"/>
      <point x="93" y="-121"/>
      <point x="148" y="7"/>
      <point x="127" y="21" type="curve"/>
    </contour>
    <contour>
      <point x="127" y="36" type="line"/>
      <point x="17" y="61" type="line"/>
      <point x="-27" y="36" type="line"/>
      <point x="5" y="11" type="line"/>
      <point x="127" y="35" type="line"/>
      <point x="238" y="11" type="line"/>
      <point x="282" y="36" type="line"/>
      <point x="251" y="61" type="line"/>
    </contour>
    <contour>
      <point x="240" y="455" type="line"/>
      <point x="129" y="480" type="line"/>
      <point x="85" y="455" type="line"/>
      <point x="116" y="430" type="line"/>
      <point x="239" y="454" type="line"/>
      <point x="350" y="430" type="line"/>
      <point x="395" y="455" type="line"/>
      <point x="363" y="480" type="line"/>
    </contour>
    <contour>
      <point x="269" y="657"/>
      <point x="256" y="628"/>
      <point x="252" y="612" type="curve"/>
      <point x="274" y="612"/>
      <point x="219" y="484"/>
      <point x="240" y="470" type="curve"/>
      <point x="248" y="470" type="line"/>
      <point x="275" y="484"/>
      <point x="290" y="612"/>
      <point x="312" y="612" type="curve"/>
      <point x="316" y="628"/>
      <point x="319" y="657"/>
      <point x="294" y="657" type="curve" smooth="yes"/>
    </contour>
  </outline>
</glyph>
<glyph name="perthousand" format="1">
  <advance width="1232"/>
  <unicode hex="2030"/>
  <outline>
    <contour>
      <point x="357" y="748"/>
      <point x="365" y="725"/>
      <point x="365" y="687" type="curve" smooth="yes"/>
      <point x="365" y="601"/>
      <point x="329" y="451"/>
      <point x="263" y="451" type="curve" smooth="yes"/>
      <point x="249" y="451"/>
      <point x="241" y="474"/>
      <point x="241" y="513" type="curve" smooth="yes"/>
      <point x="241" y="598"/>
      <point x="277" y="748"/>
      <point x="343" y="748" type="curve" smooth="yes"/>
    </contour>
    <contour>
      <point x="114" y="483"/>
      <point x="168" y="438"/>
      <point x="256" y="438" type="curve" smooth="yes"/>
      <point x="393" y="438"/>
      <point x="492" y="542"/>
      <point x="492" y="637" type="curve" smooth="yes"/>
      <point x="492" y="715"/>
      <point x="439" y="761"/>
      <point x="351" y="761" type="curve" smooth="yes"/>
      <point x="214" y="761"/>
      <point x="114" y="657"/>
      <point x="114" y="562" type="curve" smooth="yes"/>
    </contour>
    <contour>
      <point x="615" y="296"/>
      <point x="623" y="273"/>
      <point x="623" y="235" type="curve" smooth="yes"/>
      <point x="623" y="149"/>
      <point x="587" y="-1"/>
      <point x="521" y="-1" type="curve" smooth="yes"/>
      <point x="507" y="-1"/>
      <point x="499" y="22"/>
      <point x="499" y="61" type="curve" smooth="yes"/>
      <point x="499" y="146"/>
      <point x="535" y="296"/>
      <point x="601" y="296" type="curve" smooth="yes"/>
    </contour>
    <contour>
      <point x="372" y="31"/>
      <point x="426" y="-14"/>
      <point x="514" y="-14" type="curve" smooth="yes"/>
      <point x="651" y="-14"/>
      <point x="750" y="90"/>
      <point x="750" y="185" type="curve" smooth="yes"/>
      <point x="750" y="263"/>
      <point x="697" y="309"/>
      <point x="609" y="309" type="curve" smooth="yes"/>
      <point x="472" y="309"/>
      <point x="372" y="205"/>
      <point x="372" y="110" type="curve" smooth="yes"/>
    </contour>
    <contour>
      <point x="1032" y="296"/>
      <point x="1040" y="273"/>
      <point x="1040" y="235" type="curve" smooth="yes"/>
      <point x="1040" y="149"/>
      <point x="1004" y="-1"/>
      <point x="938" y="-1" type="curve" smooth="yes"/>
      <point x="924" y="-1"/>
      <point x="916" y="22"/>
      <point x="916" y="61" type="curve" smooth="yes"/>
      <point x="916" y="146"/>
      <point x="952" y="296"/>
      <point x="1018" y="296" type="curve" smooth="yes"/>
    </contour>
    <contour>
      <point x="789" y="31"/>
      <point x="843" y="-14"/>
      <point x="931" y="-14" type="curve" smooth="yes"/>
      <point x="1068" y="-14"/>
      <point x="1167" y="90"/>
      <point x="1167" y="185" type="curve" smooth="yes"/>
      <point x="1167" y="263"/>
      <point x="1114" y="309"/>
      <point x="1026" y="309" type="curve" smooth="yes"/>
      <point x="889" y="309"/>
      <point x="789" y="205"/>
      <point x="789" y="110" type="curve" smooth="yes"/>
    </contour>
    <component base="fraction" xOffset="392"/>
  </outline>
</glyph>
<glyph name="fraction" format="1">
  <advance width="60"/>
  <unicode hex="2044"/>
  <outline>
    <contour>
      <point x="-370" y="-42" type="line"/>
      <point x="-355" y="-55" type="line"/>
      <point x="478" y="811" type="line"/>
      <point x="463" y="824" type="line"/>
    </contour>
  </outline>
</glyph>
<glyph name="arrowleft" format="1">
  <advance width="681"/>
  <unicode hex="2190"/>
  <outline>
    <contour>
      <point x="604" y="451" type="line"/>
      <point x="558" y="350"/>
      <point x="492" y="292"/>
      <point x="397" y="264" type="curve"/>
      <point x="492" y="236"/>
      <point x="558" y="178"/>
      <point x="604" y="77" type="curve"/>
      <point x="621" y="77" type="line"/>
      <point x="574" y="178"/>
      <point x="520" y="234"/>
      <point x="440" y="264" type="curve"/>
      <point x="520" y="294"/>
      <point x="574" y="350"/>
      <point x="621" y="451" type="curve"/>
    </contour>
    <contour>
      <point x="232" y="451" type="line"/>
      <point x="186" y="350"/>
      <point x="120" y="292"/>
      <point x="25" y="264" type="curve"/>
      <point x="120" y="236"/>
      <point x="186" y="178"/>
      <point x="232" y="77" type="curve"/>
      <point x="249" y="77" type="line"/>
      <point x="220" y="139"/>
      <point x="206" y="200"/>
      <point x="206" y="264" type="curve" smooth="yes"/>
      <point x="206" y="328"/>
      <point x="220" y="389"/>
      <point x="249" y="451" type="curve"/>
    </contour>
    <contour>
      <point x="196" y="272" type="line"/>
      <point x="196" y="256" type="line"/>
      <point x="344" y="256" type="line"/>
      <point x="344" y="272" type="line"/>
    </contour>
    <contour>
      <point x="514" y="451" type="line"/>
      <point x="468" y="350"/>
      <point x="402" y="292"/>
      <point x="307" y="264" type="curve"/>
      <point x="402" y="236"/>
      <point x="468" y="178"/>
      <point x="514" y="77" type="curve"/>
      <point x="531" y="77" type="line"/>
      <point x="484" y="178"/>
      <point x="430" y="234"/>
      <point x="350" y="264" type="curve"/>
      <point x="430" y="294"/>
      <point x="484" y="350"/>
      <point x="531" y="451" type="curve"/>
    </contour>
  </outline>
</glyph>
<glyph name="fl" format="1">
  <advance width="628"/>
  <unicode hex="FB02"/>
  <outline>
    <contour>
      <point x="692" y="795" type="line"/>
      <point x="613" y="769"/>
      <point x="533" y="755"/>
      <point x="424" y="754" type="curve"/>
      <point x="417" y="733" type="line"/>
      <point x="482" y="733"/>
      <point x="493" y="712"/>
      <point x="480" y="667" type="curve" smooth="yes"/>
      <point x="327" y="158" type="line" smooth="yes"/>
      <point x="293" y="44"/>
      <point x="336" y="-14"/>
      <point x="421" y="-14" type="curve" smooth="yes"/>
      <point x="468" y="-14"/>
      <point x="533" y="3"/>
      <point x="563" y="89" type="curve" smooth="yes"/>
      <point x="588" y="162" type="line"/>
      <point x="569" y="162" type="line"/>
      <point x="548" y="106" type="line" smooth="yes"/>
      <point x="526" y="47"/>
      <point x="504" y="43"/>
      <point x="497" y="43" type="curve" smooth="yes"/>
      <point x="485" y="43"/>
      <point x="472" y="53"/>
      <point x="481" y="85" type="curve" smooth="yes"/>
    </contour>
    <contour>
      <point x="381" y="498" type="line"/>
      <point x="387" y="518" type="line"/>
      <point x="53" y="518" type="line"/>
      <point x="47" y="498" type="line"/>
    </contour>
    <contour>
      <point x="461" y="733" type="line"/>
      <point x="462" y="754" type="line"/>
      <point x="434" y="754" type="line" smooth="yes"/>
      <point x="352" y="754"/>
      <point x="290" y="737"/>
      <point x="243" y="703" type="curve" smooth="yes"/>
      <point x="188" y="663"/>
      <point x="153" y="598"/>
      <point x="128" y="504" type="curve" smooth="yes"/>
      <point x="-58" y="-188" type="line"/>
      <point x="-2" y="-179"/>
      <point x="51" y="-175"/>
      <point x="123" y="-174" type="curve"/>
      <point x="344" y="654" type="line" smooth="yes"/>
      <point x="353" y="687"/>
      <point x="364" y="707"/>
      <point x="378" y="719" type="curve" smooth="yes"/>
      <point x="391" y="729"/>
      <point x="407" y="733"/>
      <point x="428" y="733" type="curve" smooth="yes"/>
    </contour>
  </outline>
</glyph>
<glyph name="acutecomb.loclPLK.case" format="1">
  <advance width="187"/>
  <outline>
    <contour>
      <point x="158" y="759" type="line"/>
      <point x="235" y="826"/>
      <point x="287" y="848"/>
      <point x="313" y="881" type="curve" smooth="yes"/>
      <point x="336" y="913"/>
      <point x="345" y="954"/>
      <point x="309" y="980" type="curve" smooth="yes"/>
      <point x="270" y="1009"/>
      <point x="225" y="988"/>
      <point x="206" y="957" type="curve" smooth="yes"/>
      <point x="180" y="922"/>
      <point x="179" y="867"/>
      <point x="146" y="766" type="curve"/>
    </contour>
    <contour>
      <point x="228" y="928" type="move" name="top"/>
    </contour>
    <contour>
      <point x="173" y="708" type="move" name="_top"/>
    </contour>
  </outline>
</glyph>
<glyph name="ampersand.smcp" format="1">
  <advance width="849"/>
  <outline>
    <contour>
      <point x="495" y="140" type="line"/>
      <point x="485" y="131"/>
      <point x="469" y="127"/>
      <point x="456" y="127" type="curve" smooth="yes"/>
      <point x="438" y="127"/>
      <point x="415" y="135"/>
      <point x="415" y="164" type="curve" smooth="yes"/>
      <point x="415" y="195"/>
      <point x="441" y="210"/>
      <point x="484" y="228" type="curve" smooth="yes"/>
      <point x="556" y="258"/>
      <point x="627" y="289"/>
      <point x="699" y="319" type="curve" smooth="yes"/>
      <point x="817" y="369"/>
      <point x="872" y="443"/>
      <point x="872" y="532" type="curve" smooth="yes"/>
      <point x="872" y="631"/>
      <point x="803" y="667"/>
      <point x="721" y="667" type="curve" smooth="yes"/>
      <point x="691" y="667"/>
      <point x="652" y="662"/>
      <point x="621" y="649" type="curve" smooth="yes"/>
      <point x="582" y="633"/>
      <point x="551" y="605"/>
      <point x="551" y="569" type="curve" smooth="yes"/>
      <point x="551" y="529"/>
      <point x="589" y="502"/>
      <point x="642" y="502" type="curve" smooth="yes"/>
      <point x="697" y="502"/>
      <point x="747" y="532"/>
      <point x="747" y="579" type="curve" smooth="yes"/>
      <point x="747" y="612"/>
      <point x="723" y="634"/>
      <point x="689" y="647" type="curve"/>
      <point x="696" y="650"/>
      <point x="712" y="652"/>
      <point x="727" y="652" type="curve" smooth="yes"/>
      <point x="780" y="652"/>
      <point x="806" y="628"/>
      <point x="806" y="583" type="curve" smooth="yes"/>
      <point x="806" y="547"/>
      <point x="790" y="514"/>
      <point x="703" y="477" type="curve" smooth="yes"/>
      <point x="628" y="445"/>
      <point x="554" y="413"/>
      <point x="479" y="381" type="curve" smooth="yes"/>
      <point x="390" y="343"/>
      <point x="325" y="303"/>
      <point x="325" y="221" type="curve" smooth="yes"/>
      <point x="325" y="144"/>
      <point x="382" y="108"/>
      <point x="447" y="108" type="curve" smooth="yes"/>
      <point x="471" y="108"/>
      <point x="488" y="113"/>
      <point x="505" y="127" type="curve"/>
    </contour>
    <contour>
      <point x="427" y="480" type="line"/>
      <point x="458" y="480"/>
      <point x="499" y="500"/>
      <point x="499" y="546" type="curve" smooth="yes"/>
      <point x="499" y="590"/>
      <point x="461" y="622"/>
      <point x="371" y="622" type="curve" smooth="yes"/>
      <point x="275" y="622"/>
      <point x="178" y="585"/>
      <point x="178" y="507" type="curve" smooth="yes"/>
      <point x="178" y="465"/>
      <point x="207" y="427"/>
      <point x="278" y="408" type="curve"/>
      <point x="118" y="374"/>
      <point x="13" y="303"/>
      <point x="13" y="188" type="curve" smooth="yes"/>
      <point x="13" y="57"/>
      <point x="151" y="-14"/>
      <point x="336" y="-14" type="curve" smooth="yes"/>
      <point x="606" y="-14"/>
      <point x="722" y="136"/>
      <point x="722" y="259" type="curve" smooth="yes"/>
      <point x="722" y="325"/>
      <point x="688" y="381"/>
      <point x="627" y="405" type="curve"/>
      <point x="616" y="394" type="line"/>
      <point x="681" y="367"/>
      <point x="701" y="317"/>
      <point x="701" y="266" type="curve" smooth="yes"/>
      <point x="701" y="132"/>
      <point x="563" y="80"/>
      <point x="436" y="80" type="curve" smooth="yes"/>
      <point x="306" y="80"/>
      <point x="228" y="135"/>
      <point x="228" y="246" type="curve" smooth="yes"/>
      <point x="228" y="312"/>
      <point x="255" y="378"/>
      <point x="291" y="400" type="curve"/>
      <point x="306" y="394"/>
      <point x="328" y="382"/>
      <point x="349" y="382" type="curve" smooth="yes"/>
      <point x="364" y="382"/>
      <point x="380" y="388"/>
      <point x="380" y="403" type="curve" smooth="yes"/>
      <point x="380" y="416"/>
      <point x="368" y="424"/>
      <point x="348" y="424" type="curve" smooth="yes"/>
      <point x="334" y="424"/>
      <point x="312" y="420"/>
      <point x="292" y="414" type="curve"/>
      <point x="290" y="423"/>
      <point x="290" y="432"/>
      <point x="290" y="441" type="curve" smooth="yes"/>
      <point x="290" y="529"/>
      <point x="356" y="582"/>
      <point x="420" y="582" type="curve" smooth="yes"/>
      <point x="456" y="582"/>
      <point x="475" y="565"/>
      <point x="475" y="543" type="curve" smooth="yes"/>
      <point x="475" y="519"/>
      <point x="454" y="498"/>
      <point x="426" y="498" type="curve"/>
    </contour>
  </outline>
</glyph>
<glyph name="b.smcp" format="1">
  <advance width="699"/>
  <outline>
    <contour>
      <point x="380" y="607"/>
      <point x="335" y="605"/>
      <point x="289" y="605" type="curve" smooth="yes"/>
      <point x="221" y="605"/>
      <point x="149" y="606"/>
      <point x="110" y="608" type="curve"/>
      <point x="105" y="588" type="line"/>
      <point x="182" y="586"/>
      <point x="180" y="564"/>
      <point x="164" y="502" type="curve" smooth="yes"/>
      <point x="58" y="106" type="line" smooth="yes"/>
      <point x="39" y="33"/>
      <point x="23" y="23"/>
      <point x="-45" y="20" type="curve"/>
      <point x="-49" y="0" type="line"/>
      <point x="-9" y="2"/>
      <point x="62" y="3"/>
      <point x="133" y="3" type="curve" smooth="yes"/>
      <point x="202" y="3"/>
      <point x="254" y="0"/>
      <point x="305" y="0" type="curve" smooth="yes"/>
      <point x="502" y="0"/>
      <point x="637" y="61"/>
      <point x="637" y="191" type="curve" smooth="yes"/>
      <point x="637" y="254"/>
      <point x="580" y="321"/>
      <point x="393" y="323" type="curve"/>
      <point x="578" y="335"/>
      <point x="675" y="403"/>
      <point x="675" y="486" type="curve" smooth="yes"/>
      <point x="675" y="570"/>
      <point x="599" y="607"/>
      <point x="430" y="607" type="curve" smooth="yes"/>
    </contour>
    <contour>
      <point x="345" y="309" type="line" smooth="yes"/>
      <point x="408" y="309"/>
      <point x="427" y="262"/>
      <point x="427" y="208" type="curve" smooth="yes"/>
      <point x="427" y="97"/>
      <point x="376" y="23"/>
      <point x="275" y="23" type="curve" smooth="yes"/>
      <point x="242" y="23"/>
      <point x="250" y="65"/>
      <point x="261" y="106" type="curve" smooth="yes"/>
      <point x="379" y="550" type="line" smooth="yes"/>
      <point x="387" y="582"/>
      <point x="394" y="588"/>
      <point x="415" y="588" type="curve" smooth="yes"/>
      <point x="461" y="588"/>
      <point x="472" y="549"/>
      <point x="472" y="511" type="curve" smooth="yes"/>
      <point x="472" y="413"/>
      <point x="425" y="326"/>
      <point x="331" y="326" type="curve" smooth="yes"/>
      <point x="274" y="326" type="line"/>
      <point x="274" y="326"/>
      <point x="270" y="309"/>
      <point x="270" y="309" type="curve"/>
    </contour>
    <contour>
      <point x="422" y="608" type="move" name="top"/>
    </contour>
  </outline>
</glyph>
<glyph name="braceleft.smcp" format="1">
  <advance width="382"/>
  <outline>
    <contour>
      <point x="269" y="662"/>
      <point x="187" y="631"/>
      <point x="147" y="487" type="curve" smooth="yes"/>
      <point x="107" y="344"/>
      <point x="102" y="314"/>
      <point x="32" y="314" type="curve" smooth="yes"/>
      <point x="27" y="314" type="line"/>
      <point x="24" y="296" type="line"/>
      <point x="29" y="296" type="line" smooth="yes"/>
      <point x="53" y="294"/>
      <point x="70" y="272"/>
      <point x="70" y="217" type="curve" smooth="yes"/>
      <point x="70" y="150"/>
      <point x="32" y="76"/>
      <point x="32" y="38" type="curve" smooth="yes"/>
      <point x="32" y="-27"/>
      <point x="108" y="-54"/>
      <point x="274" y="-54" type="curve"/>
      <point x="279" y="-35" type="line"/>
      <point x="241" y="-34"/>
      <point x="222" y="-30"/>
      <point x="222" y="11" type="curve" smooth="yes"/>
      <point x="222" y="68"/>
      <point x="254" y="125"/>
      <point x="254" y="181" type="curve" smooth="yes"/>
      <point x="254" y="263"/>
      <point x="155" y="290"/>
      <point x="54" y="305" type="curve"/>
      <point x="170" y="307"/>
      <point x="302" y="348"/>
      <point x="340" y="487" type="curve" smooth="yes"/>
      <point x="379" y="628"/>
      <point x="387" y="642"/>
      <point x="432" y="643" type="curve"/>
      <point x="437" y="662" type="line"/>
    </contour>
  </outline>
</glyph>
<glyph name="braceright.case" format="1">
  <advance width="377"/>
  <outline>
    <contour>
      <point x="137" y="763" type="line"/>
      <point x="175" y="762"/>
      <point x="194" y="754"/>
      <point x="194" y="713" type="curve" smooth="yes"/>
      <point x="194" y="688"/>
      <point x="187" y="642"/>
      <point x="171" y="577" type="curve" smooth="yes"/>
      <point x="135" y="431"/>
      <point x="180" y="384"/>
      <point x="333" y="355" type="curve"/>
      <point x="170" y="340"/>
      <point x="97" y="294"/>
      <point x="56" y="111" type="curve" smooth="yes"/>
      <point x="22" y="-40"/>
      <point x="9" y="-54"/>
      <point x="-36" y="-55" type="curve"/>
      <point x="-41" y="-74" type="line"/>
      <point x="110" y="-74"/>
      <point x="186" y="-42"/>
      <point x="226" y="111" type="curve" smooth="yes"/>
      <point x="275" y="297"/>
      <point x="298" y="341"/>
      <point x="355" y="346" type="curve" smooth="yes"/>
      <point x="360" y="346" type="line"/>
      <point x="363" y="364" type="line"/>
      <point x="358" y="364" type="line" smooth="yes"/>
      <point x="328" y="366"/>
      <point x="312" y="382"/>
      <point x="311" y="423" type="curve" smooth="yes"/>
      <point x="311" y="454"/>
      <point x="324" y="502"/>
      <point x="341" y="577" type="curve" smooth="yes"/>
      <point x="375" y="723"/>
      <point x="352" y="784"/>
      <point x="142" y="782" type="curve"/>
    </contour>
  </outline>
</glyph>
<glyph name="braceright.smcp" format="1">
  <advance width="389"/>
  <outline>
    <contour>
      <point x="106" y="643" type="line"/>
      <point x="144" y="642"/>
      <point x="163" y="634"/>
      <point x="163" y="593" type="curve" smooth="yes"/>
      <point x="163" y="536"/>
      <point x="131" y="479"/>
      <point x="131" y="423" type="curve" smooth="yes"/>
      <point x="131" y="348"/>
      <point x="235" y="319"/>
      <point x="341" y="305" type="curve"/>
      <point x="221" y="303"/>
      <point x="84" y="263"/>
      <point x="45" y="117" type="curve" smooth="yes"/>
      <point x="7" y="-24"/>
      <point x="-2" y="-38"/>
      <point x="-47" y="-39" type="curve"/>
      <point x="-52" y="-58" type="line"/>
      <point x="122" y="-58"/>
      <point x="211" y="-28"/>
      <point x="248" y="117" type="curve" smooth="yes"/>
      <point x="286" y="267"/>
      <point x="293" y="296"/>
      <point x="363" y="296" type="curve" smooth="yes"/>
      <point x="368" y="296" type="line"/>
      <point x="371" y="314" type="line"/>
      <point x="366" y="314" type="line" smooth="yes"/>
      <point x="342" y="316"/>
      <point x="326" y="339"/>
      <point x="325" y="387" type="curve" smooth="yes"/>
      <point x="325" y="438"/>
      <point x="363" y="528"/>
      <point x="363" y="578" type="curve" smooth="yes"/>
      <point x="363" y="631"/>
      <point x="284" y="662"/>
      <point x="111" y="662" type="curve"/>
    </contour>
  </outline>
</glyph>
<glyph name="eight.sups" format="1">
  <advance width="410"/>
  <outline>
    <contour>
      <point x="270" y="870"/>
      <point x="175" y="822"/>
      <point x="175" y="751" type="curve" smooth="yes"/>
      <point x="175" y="659"/>
      <point x="335" y="638"/>
      <point x="335" y="543" type="curve" smooth="yes"/>
      <point x="335" y="492"/>
      <point x="289" y="449"/>
      <point x="242" y="449" type="curve" smooth="yes"/>
      <point x="209" y="449"/>
      <point x="199" y="470"/>
      <point x="199" y="502" type="curve" smooth="yes"/>
      <point x="199" y="563"/>
      <point x="237" y="618"/>
      <point x="286" y="648" type="curve"/>
      <point x="284" y="665" type="line"/>
      <point x="182" y="632"/>
      <point x="82" y="579"/>
      <point x="82" y="510" type="curve" smooth="yes"/>
      <point x="82" y="451"/>
      <point x="153" y="429"/>
      <point x="228" y="429" type="curve" smooth="yes"/>
      <point x="351" y="429"/>
      <point x="455" y="489"/>
      <point x="455" y="564" type="curve" smooth="yes"/>
      <point x="455" y="659"/>
      <point x="291" y="683"/>
      <point x="291" y="773" type="curve" smooth="yes"/>
      <point x="291" y="814"/>
      <point x="324" y="849"/>
      <point x="361" y="849" type="curve" smooth="yes"/>
      <point x="383" y="849"/>
      <point x="392" y="836"/>
      <point x="392" y="809" type="curve" smooth="yes"/>
      <point x="392" y="757"/>
      <point x="358" y="709"/>
      <point x="325" y="684" type="curve"/>
      <point x="328" y="667" type="line"/>
      <point x="395" y="693"/>
      <point x="504" y="739"/>
      <point x="504" y="804" type="curve" smooth="yes"/>
      <point x="504" y="850"/>
      <point x="448" y="870"/>
      <point x="378" y="870" type="curve" smooth="yes"/>
    </contour>
  </outline>
</glyph>
<glyph name="f.smcp" format="1">
  <advance width="607"/>
  <outline>
    <contour>
      <point x="451" y="295" type="line"/>
      <point x="455" y="315" type="line"/>
      <point x="241" y="315" type="line"/>
      <point x="237" y="295" type="line"/>
    </contour>
    <contour>
      <point x="601" y="605"/>
      <point x="518" y="605"/>
      <point x="457" y="605" type="curve" smooth="yes"/>
      <point x="385" y="605"/>
      <point x="225" y="605"/>
      <point x="110" y="608" type="curve"/>
      <point x="105" y="588" type="line"/>
      <point x="172" y="585"/>
      <point x="183" y="575"/>
      <point x="164" y="502" type="curve" smooth="yes"/>
      <point x="58" y="106" type="line" smooth="yes"/>
      <point x="39" y="33"/>
      <point x="23" y="23"/>
      <point x="-45" y="20" type="curve"/>
      <point x="-49" y="0" type="line"/>
      <point x="-9" y="2"/>
      <point x="61" y="3"/>
      <point x="137" y="3" type="curve" smooth="yes"/>
      <point x="211" y="3"/>
      <point x="291" y="2"/>
      <point x="336" y="0" type="curve"/>
      <point x="340" y="20" type="line"/>
      <point x="256" y="23"/>
      <point x="242" y="33"/>
      <point x="261" y="106" type="curve" smooth="yes"/>
      <point x="367" y="502" type="line" smooth="yes"/>
      <point x="386" y="575"/>
      <point x="401" y="585"/>
      <point x="467" y="585" type="curve" smooth="yes"/>
      <point x="470" y="585" type="line" smooth="yes"/>
      <point x="550" y="585"/>
      <point x="595" y="516"/>
      <point x="584" y="398" type="curve"/>
      <point x="606" y="398" type="line"/>
      <point x="609" y="414"/>
      <point x="613" y="436"/>
      <point x="625" y="484" type="curve" smooth="yes"/>
      <point x="635" y="523"/>
      <point x="646" y="561"/>
      <point x="664" y="608" type="curve"/>
    </contour>
    <contour>
      <point x="328" y="295" type="line"/>
      <point x="396" y="295"/>
      <point x="420" y="237"/>
      <point x="423" y="163" type="curve"/>
      <point x="445" y="163" type="line"/>
      <point x="457" y="231"/>
      <point x="461" y="251"/>
      <point x="471" y="295" type="curve" smooth="yes"/>
      <point x="480" y="336"/>
      <point x="488" y="365"/>
      <point x="505" y="417" type="curve"/>
      <point x="483" y="417" type="line"/>
      <point x="455" y="350"/>
      <point x="403" y="315"/>
      <point x="342" y="315" type="curve"/>
    </contour>
  </outline>
</glyph>
<glyph name="five.subs" format="1">
  <advance width="336"/>
  <outline>
    <contour>
      <point x="209" y="204"/>
      <point x="186" y="197"/>
      <point x="158" y="197" type="curve" smooth="yes"/>
      <point x="110" y="197"/>
      <point x="81" y="218"/>
      <point x="36" y="212" type="curve"/>
      <point x="-32" y="6" type="line"/>
      <point x="-20" y="-5" type="line"/>
      <point x="-1" y="2"/>
      <point x="20" y="9"/>
      <point x="45" y="9" type="curve" smooth="yes"/>
      <point x="91" y="9"/>
      <point x="105" y="-14"/>
      <point x="105" y="-49" type="curve" smooth="yes"/>
      <point x="105" y="-143"/>
      <point x="3" y="-195"/>
      <point x="-117" y="-210" type="curve"/>
      <point x="-117" y="-228" type="line"/>
      <point x="15" y="-218"/>
      <point x="227" y="-163"/>
      <point x="227" y="-45" type="curve" smooth="yes"/>
      <point x="227" y="5"/>
      <point x="189" y="38"/>
      <point x="98" y="38" type="curve" smooth="yes"/>
      <point x="54" y="38"/>
      <point x="21" y="30"/>
      <point x="-7" y="20" type="curve"/>
      <point x="27" y="115" type="line"/>
      <point x="58" y="117"/>
      <point x="102" y="104"/>
      <point x="131" y="104" type="curve" smooth="yes"/>
      <point x="183" y="104"/>
      <point x="219" y="144"/>
      <point x="246" y="220" type="curve"/>
      <point x="230" y="229" type="line"/>
    </contour>
  </outline>
</glyph>
<glyph name="g.smcp" format="1">
  <advance width="744"/>
  <outline>
    <contour>
      <point x="648" y="163" type="line" smooth="yes"/>
      <point x="668" y="237"/>
      <point x="677" y="246"/>
      <point x="724" y="249" type="curve"/>
      <point x="728" y="269" type="line"/>
      <point x="692" y="267"/>
      <point x="632" y="266"/>
      <point x="564" y="266" type="curve" smooth="yes"/>
      <point x="504" y="266"/>
      <point x="418" y="267"/>
      <point x="373" y="269" type="curve"/>
      <point x="369" y="249" type="line"/>
      <point x="442" y="246"/>
      <point x="462" y="221"/>
      <point x="444" y="153" type="curve" smooth="yes"/>
      <point x="426" y="86" type="line" smooth="yes"/>
      <point x="414" y="28"/>
      <point x="394" y="6"/>
      <point x="339" y="6" type="curve" smooth="yes"/>
      <point x="266" y="6"/>
      <point x="225" y="56"/>
      <point x="225" y="162" type="curve" smooth="yes"/>
      <point x="225" y="307"/>
      <point x="299" y="604"/>
      <point x="486" y="604" type="curve" smooth="yes"/>
      <point x="568" y="604"/>
      <point x="621" y="576"/>
      <point x="650" y="526" type="curve" smooth="yes"/>
      <point x="662" y="505"/>
      <point x="664" y="481"/>
      <point x="664" y="453" type="curve" smooth="yes"/>
      <point x="664" y="429"/>
      <point x="662" y="404"/>
      <point x="659" y="378" type="curve"/>
      <point x="681" y="378" type="line"/>
      <point x="708" y="494"/>
      <point x="728" y="559"/>
      <point x="745" y="608" type="curve"/>
      <point x="723" y="608" type="line"/>
      <point x="702" y="547"/>
      <point x="686" y="537"/>
      <point x="666" y="557" type="curve" smooth="yes"/>
      <point x="627" y="593"/>
      <point x="570" y="622"/>
      <point x="492" y="622" type="curve" smooth="yes"/>
      <point x="195" y="622"/>
      <point x="22" y="383"/>
      <point x="22" y="195" type="curve" smooth="yes"/>
      <point x="22" y="61"/>
      <point x="128" y="-14"/>
      <point x="319" y="-14" type="curve" smooth="yes"/>
      <point x="368" y="-14"/>
      <point x="404" y="-7"/>
      <point x="474" y="23" type="curve" smooth="yes"/>
      <point x="513" y="40"/>
      <point x="536" y="47"/>
      <point x="559" y="47" type="curve" smooth="yes"/>
      <point x="579" y="47"/>
      <point x="589" y="32"/>
      <point x="584" y="0" type="curve"/>
      <point x="604" y="0" type="line"/>
    </contour>
    <contour>
      <point x="492" y="608" type="move" name="top"/>
    </contour>
    <contour>
      <point x="340" y="0" type="move" name="bottom"/>
    </contour>
  </outline>
</glyph>
<glyph name="germandbls.smcp" format="1">
  <advance width="723"/>
  <outline>
    <contour>
      <point x="331" y="492" type="line" smooth="yes"/>
      <point x="354" y="574"/>
      <point x="393" y="607"/>
      <point x="435" y="607" type="curve" smooth="yes"/>
      <point x="465" y="607"/>
      <point x="472" y="590"/>
      <point x="472" y="546" type="curve" smooth="yes"/>
      <point x="472" y="462"/>
      <point x="446" y="374"/>
      <point x="398" y="336" type="curve"/>
      <point x="378" y="341"/>
      <point x="363" y="345"/>
      <point x="351" y="345" type="curve" smooth="yes"/>
      <point x="329" y="345"/>
      <point x="320" y="333"/>
      <point x="320" y="325" type="curve" smooth="yes"/>
      <point x="320" y="319"/>
      <point x="326" y="313"/>
      <point x="341" y="313" type="curve" smooth="yes"/>
      <point x="355" y="313"/>
      <point x="370" y="318"/>
      <point x="392" y="325" type="curve"/>
      <point x="430" y="325"/>
      <point x="474" y="264"/>
      <point x="474" y="171" type="curve" smooth="yes"/>
      <point x="474" y="79"/>
      <point x="420" y="2"/>
      <point x="351" y="2" type="curve" smooth="yes"/>
      <point x="343" y="2"/>
      <point x="330" y="3"/>
      <point x="323" y="4" type="curve"/>
      <point x="378" y="14"/>
      <point x="422" y="64"/>
      <point x="422" y="117" type="curve" smooth="yes"/>
      <point x="422" y="162"/>
      <point x="391" y="190"/>
      <point x="346" y="190" type="curve" smooth="yes"/>
      <point x="280" y="190"/>
      <point x="244" y="131"/>
      <point x="244" y="73" type="curve" smooth="yes"/>
      <point x="244" y="6"/>
      <point x="291" y="-14"/>
      <point x="374" y="-14" type="curve" smooth="yes"/>
      <point x="532" y="-14"/>
      <point x="670" y="63"/>
      <point x="670" y="173" type="curve" smooth="yes"/>
      <point x="670" y="246"/>
      <point x="608" y="320"/>
      <point x="412" y="334" type="curve"/>
      <point x="560" y="357"/>
      <point x="678" y="408"/>
      <point x="678" y="505" type="curve" smooth="yes"/>
      <point x="678" y="582"/>
      <point x="603" y="622"/>
      <point x="456" y="622" type="curve" smooth="yes"/>
      <point x="291" y="622"/>
      <point x="151" y="571"/>
      <point x="80" y="310" type="curve" smooth="yes"/>
      <point x="-57" y="-188" type="line"/>
      <point x="5" y="-179"/>
      <point x="65" y="-173"/>
      <point x="145" y="-172" type="curve"/>
    </contour>
  </outline>
</glyph>
<glyph name="guilsinglleft.smcp" format="1">
  <advance width="412"/>
  <outline>
    <contour>
      <point x="290" y="357"/>
      <point x="381" y="484"/>
      <point x="420" y="562" type="curve"/>
      <point x="402" y="562" type="line"/>
      <point x="286" y="474"/>
      <point x="172" y="390"/>
      <point x="38" y="318" type="curve"/>
      <point x="33" y="298" type="line"/>
      <point x="131" y="226"/>
      <point x="205" y="138"/>
      <point x="275" y="50" type="curve"/>
      <point x="293" y="50" type="line"/>
      <point x="294" y="128"/>
      <point x="265" y="259"/>
      <point x="233" y="308" type="curve"/>
    </contour>
  </outline>
</glyph>
<glyph name="guilsinglright.smcp" format="1">
  <advance width="410"/>
  <outline>
    <contour>
      <point x="124" y="562" type="line"/>
      <point x="123" y="484"/>
      <point x="152" y="352"/>
      <point x="183" y="303" type="curve"/>
      <point x="127" y="254"/>
      <point x="37" y="128"/>
      <point x="-2" y="50" type="curve"/>
      <point x="16" y="50" type="line"/>
      <point x="131" y="138"/>
      <point x="245" y="221"/>
      <point x="380" y="293" type="curve"/>
      <point x="385" y="313" type="line"/>
      <point x="286" y="385"/>
      <point x="212" y="474"/>
      <point x="142" y="562" type="curve"/>
    </contour>
  </outline>
</glyph>
<glyph name="i.smcp" format="1">
  <advance width="420"/>
  <outline>
    <contour>
      <point x="366" y="502" type="line" smooth="yes"/>
      <point x="385" y="575"/>
      <point x="400" y="585"/>
      <point x="469" y="588" type="curve"/>
      <point x="474" y="608" type="line"/>
      <point x="424" y="606"/>
      <point x="356" y="605"/>
      <point x="286" y="605" type="curve" smooth="yes"/>
      <point x="214" y="605"/>
      <point x="146" y="606"/>
      <point x="109" y="608" type="curve"/>
      <point x="104" y="588" type="line"/>
      <point x="171" y="585"/>
      <point x="182" y="575"/>
      <point x="163" y="502" type="curve" smooth="yes"/>
      <point x="58" y="106" type="line" smooth="yes"/>
      <point x="39" y="33"/>
      <point x="22" y="23"/>
      <point x="-43" y="20" type="curve"/>
      <point x="-48" y="0" type="line"/>
      <point x="-9" y="2"/>
      <point x="57" y="3"/>
      <point x="129" y="3" type="curve" smooth="yes"/>
      <point x="199" y="3"/>
      <point x="273" y="2"/>
      <point x="316" y="0" type="curve"/>
      <point x="320" y="20" type="line"/>
      <point x="252" y="23"/>
      <point x="242" y="33"/>
      <point x="261" y="106" type="curve" smooth="yes"/>
    </contour>
    <contour>
      <point x="296" y="0" type="move" name="ogonek"/>
    </contour>
    <contour>
      <point x="128" y="0" type="move" name="bottom"/>
    </contour>
    <contour>
      <point x="315" y="608" type="move" name="top"/>
    </contour>
  </outline>
</glyph>
<glyph name="m.smcp" format="1">
  <advance width="897"/>
  <outline>
    <contour>
      <point x="60" y="111" type="line" smooth="yes"/>
      <point x="45" y="54"/>
      <point x="25" y="23"/>
      <point x="-44" y="20" type="curve"/>
      <point x="-48" y="0" type="line"/>
      <point x="-26" y="2"/>
      <point x="12" y="3"/>
      <point x="47" y="3" type="curve" smooth="yes"/>
      <point x="82" y="3"/>
      <point x="142" y="2"/>
      <point x="166" y="0" type="curve"/>
      <point x="170" y="20" type="line"/>
      <point x="73" y="23"/>
      <point x="67" y="54"/>
      <point x="82" y="111" type="curve" smooth="yes"/>
      <point x="199" y="553" type="line"/>
      <point x="163" y="468" type="line"/>
      <point x="244" y="-5" type="line"/>
      <point x="268" y="-2"/>
      <point x="292" y="-2"/>
      <point x="316" y="-5" type="curve"/>
      <point x="704" y="545" type="line"/>
      <point x="632" y="460" type="line"/>
      <point x="536" y="106" type="line" smooth="yes"/>
      <point x="516" y="33"/>
      <point x="502" y="23"/>
      <point x="433" y="20" type="curve"/>
      <point x="429" y="0" type="line"/>
      <point x="467" y="2"/>
      <point x="537" y="3"/>
      <point x="609" y="3" type="curve" smooth="yes"/>
      <point x="679" y="3"/>
      <point x="744" y="2"/>
      <point x="793" y="0" type="curve"/>
      <point x="797" y="20" type="line"/>
      <point x="730" y="23"/>
      <point x="719" y="33"/>
      <point x="738" y="106" type="curve" smooth="yes"/>
      <point x="843" y="502" type="line" smooth="yes"/>
      <point x="862" y="575"/>
      <point x="877" y="585"/>
      <point x="946" y="588" type="curve"/>
      <point x="951" y="608" type="line"/>
      <point x="901" y="606"/>
      <point x="836" y="605"/>
      <point x="766" y="605" type="curve" smooth="yes"/>
      <point x="718" y="605" type="line"/>
      <point x="366" y="106" type="line"/>
      <point x="420" y="156" type="line"/>
      <point x="343" y="608" type="line"/>
      <point x="302" y="606"/>
      <point x="253" y="605"/>
      <point x="199" y="605" type="curve" smooth="yes"/>
      <point x="164" y="605"/>
      <point x="131" y="606"/>
      <point x="110" y="608" type="curve"/>
      <point x="105" y="588" type="line"/>
      <point x="172" y="585"/>
      <point x="183" y="575"/>
      <point x="164" y="502" type="curve" smooth="yes"/>
    </contour>
  </outline>
</glyph>
<glyph name="nine.lf" format="1">
  <advance width="647"/>
  <outline>
    <contour>
      <point x="232" y="722"/>
      <point x="85" y="563"/>
      <point x="85" y="410" type="curve" smooth="yes"/>
      <point x="85" y="305"/>
      <point x="154" y="260"/>
      <point x="249" y="260" type="curve" smooth="yes"/>
      <point x="336" y="260"/>
      <point x="428" y="297"/>
      <point x="472" y="429" type="curve"/>
      <point x="462" y="439" type="line"/>
      <point x="418" y="331"/>
      <point x="361" y="297"/>
      <point x="322" y="297" type="curve" smooth="yes"/>
      <point x="290" y="297"/>
      <point x="266" y="321"/>
      <point x="266" y="386" type="curve" smooth="yes"/>
      <point x="266" y="490"/>
      <point x="328" y="702"/>
      <point x="422" y="702" type="curve" smooth="yes"/>
      <point x="450" y="702"/>
      <point x="468" y="683"/>
      <point x="468" y="584" type="curve" smooth="yes"/>
      <point x="468" y="318"/>
      <point x="339" y="5"/>
      <point x="169" y="5" type="curve"/>
      <point x="148" y="5"/>
      <point x="127" y="10"/>
      <point x="115" y="14" type="curve"/>
      <point x="177" y="30"/>
      <point x="220" y="81"/>
      <point x="220" y="135" type="curve" smooth="yes"/>
      <point x="220" y="183"/>
      <point x="185" y="207"/>
      <point x="133" y="207" type="curve" smooth="yes"/>
      <point x="52" y="207"/>
      <point x="12" y="149"/>
      <point x="12" y="97" type="curve" smooth="yes"/>
      <point x="12" y="19"/>
      <point x="103" y="-14"/>
      <point x="188" y="-14" type="curve" smooth="yes"/>
      <point x="453" y="-14"/>
      <point x="648" y="306"/>
      <point x="648" y="528" type="curve" smooth="yes"/>
      <point x="648" y="666"/>
      <point x="572" y="722"/>
      <point x="446" y="722" type="curve" smooth="yes"/>
    </contour>
  </outline>
</glyph>
<glyph name="parenleft.smcp" format="1">
  <advance width="372"/>
  <outline>
    <contour>
      <point x="427" y="640" type="line"/>
      <point x="199" y="537"/>
      <point x="24" y="378"/>
      <point x="24" y="223" type="curve" smooth="yes"/>
      <point x="24" y="108"/>
      <point x="118" y="38"/>
      <point x="256" y="-32" type="curve"/>
      <point x="269" y="-17" type="line"/>
      <point x="228" y="45"/>
      <point x="211" y="128"/>
      <point x="211" y="212" type="curve" smooth="yes"/>
      <point x="211" y="396"/>
      <point x="301" y="524"/>
      <point x="437" y="627" type="curve"/>
    </contour>
  </outline>
</glyph>
<glyph name="q.smcp" format="1">
  <advance width="860"/>
  <outline>
    <contour>
      <point x="33" y="131"/>
      <point x="-32" y="76"/>
      <point x="-32" y="3" type="curve" smooth="yes"/>
      <point x="-32" y="-57"/>
      <point x="11" y="-82"/>
      <point x="72" y="-82" type="curve" smooth="yes"/>
      <point x="298" y="-82"/>
      <point x="830" y="223"/>
      <point x="830" y="422" type="curve" smooth="yes"/>
      <point x="830" y="542"/>
      <point x="695" y="622"/>
      <point x="513" y="622" type="curve" smooth="yes"/>
      <point x="275" y="622"/>
      <point x="59" y="493"/>
      <point x="59" y="323" type="curve" smooth="yes"/>
      <point x="59" y="205"/>
      <point x="160" y="143"/>
      <point x="290" y="143" type="curve" smooth="yes"/>
      <point x="446" y="143"/>
      <point x="557" y="225"/>
      <point x="557" y="352" type="curve" smooth="yes"/>
      <point x="557" y="424"/>
      <point x="521" y="471"/>
      <point x="460" y="471" type="curve" smooth="yes"/>
      <point x="399" y="471"/>
      <point x="348" y="423"/>
      <point x="348" y="358" type="curve" smooth="yes"/>
      <point x="348" y="305"/>
      <point x="382" y="265"/>
      <point x="436" y="265" type="curve" smooth="yes"/>
      <point x="471" y="265"/>
      <point x="520" y="282"/>
      <point x="534" y="335" type="curve"/>
      <point x="534" y="326"/>
      <point x="532" y="316"/>
      <point x="530" y="307" type="curve" smooth="yes"/>
      <point x="513" y="234"/>
      <point x="444" y="176"/>
      <point x="356" y="176" type="curve" smooth="yes"/>
      <point x="285" y="176"/>
      <point x="271" y="222"/>
      <point x="271" y="287" type="curve" smooth="yes"/>
      <point x="271" y="436"/>
      <point x="355" y="604"/>
      <point x="489" y="604" type="curve" smooth="yes"/>
      <point x="571" y="604"/>
      <point x="616" y="529"/>
      <point x="616" y="396" type="curve" smooth="yes"/>
      <point x="616" y="228"/>
      <point x="496" y="106"/>
      <point x="342" y="27" type="curve" smooth="yes"/>
      <point x="255" y="-25"/>
      <point x="153" y="-65"/>
      <point x="78" y="-65" type="curve" smooth="yes"/>
      <point x="22" y="-65"/>
      <point x="-9" y="-42"/>
      <point x="-9" y="-9" type="curve" smooth="yes"/>
      <point x="-9" y="15"/>
      <point x="8" y="29"/>
      <point x="41" y="29" type="curve" smooth="yes"/>
      <point x="169" y="29"/>
      <point x="242" y="-188"/>
      <point x="485" y="-188" type="curve" smooth="yes"/>
      <point x="668" y="-188"/>
      <point x="779" y="-80"/>
      <point x="779" y="17" type="curve" smooth="yes"/>
      <point x="779" y="85"/>
      <point x="734" y="118"/>
      <point x="675" y="118" type="curve" smooth="yes"/>
      <point x="610" y="118"/>
      <point x="564" y="77"/>
      <point x="564" y="18" type="curve" smooth="yes"/>
      <point x="564" y="-40"/>
      <point x="607" y="-71"/>
      <point x="661" y="-71" type="curve" smooth="yes"/>
      <point x="692" y="-71"/>
      <point x="723" y="-60"/>
      <point x="746" y="-38" type="curve"/>
      <point x="734" y="-59"/>
      <point x="705" y="-91"/>
      <point x="628" y="-91" type="curve" smooth="yes"/>
      <point x="457" y="-91"/>
      <point x="292" y="131"/>
      <point x="120" y="131" type="curve" smooth="yes"/>
    </contour>
  </outline>
</glyph>
<glyph name="s.smcp" format="1">
  <advance width="637"/>
  <outline>
    <contour>
      <point x="628" y="615" type="line"/>
      <point x="615" y="579"/>
      <point x="607" y="562"/>
      <point x="594" y="562" type="curve" smooth="yes"/>
      <point x="581" y="562"/>
      <point x="558" y="578"/>
      <point x="544" y="586" type="curve" smooth="yes"/>
      <point x="518" y="601"/>
      <point x="472" y="622"/>
      <point x="390" y="622" type="curve" smooth="yes"/>
      <point x="248" y="622"/>
      <point x="102" y="571"/>
      <point x="102" y="445" type="curve" smooth="yes"/>
      <point x="102" y="378"/>
      <point x="141" y="326"/>
      <point x="225" y="256" type="curve" smooth="yes"/>
      <point x="307" y="188"/>
      <point x="336" y="146"/>
      <point x="336" y="98" type="curve" smooth="yes"/>
      <point x="336" y="33"/>
      <point x="280" y="9"/>
      <point x="225" y="9" type="curve" smooth="yes"/>
      <point x="105" y="9"/>
      <point x="47" y="67"/>
      <point x="44" y="152" type="curve" smooth="yes"/>
      <point x="43" y="180"/>
      <point x="48" y="205"/>
      <point x="53" y="233" type="curve"/>
      <point x="33" y="233" type="line"/>
      <point x="3" y="94"/>
      <point x="-17" y="36"/>
      <point x="-35" y="-7" type="curve"/>
      <point x="-15" y="-7" type="line"/>
      <point x="0" y="29"/>
      <point x="9" y="47"/>
      <point x="25" y="47" type="curve" smooth="yes"/>
      <point x="35" y="47"/>
      <point x="51" y="39"/>
      <point x="69" y="29" type="curve" smooth="yes"/>
      <point x="128" y="-2"/>
      <point x="174" y="-14"/>
      <point x="251" y="-14" type="curve" smooth="yes"/>
      <point x="411" y="-14"/>
      <point x="567" y="38"/>
      <point x="567" y="164" type="curve" smooth="yes"/>
      <point x="567" y="235"/>
      <point x="520" y="275"/>
      <point x="429" y="353" type="curve" smooth="yes"/>
      <point x="329" y="439"/>
      <point x="307" y="470"/>
      <point x="307" y="518" type="curve" smooth="yes"/>
      <point x="307" y="562"/>
      <point x="343" y="602"/>
      <point x="419" y="602" type="curve" smooth="yes"/>
      <point x="506" y="602"/>
      <point x="575" y="544"/>
      <point x="575" y="467" type="curve" smooth="yes"/>
      <point x="575" y="450"/>
      <point x="573" y="430"/>
      <point x="569" y="411" type="curve"/>
      <point x="589" y="411" type="line"/>
      <point x="609" y="516"/>
      <point x="634" y="580"/>
      <point x="648" y="615" type="curve"/>
    </contour>
    <contour>
      <point x="413" y="608" type="move" name="top"/>
    </contour>
    <contour>
      <point x="255" y="0" type="move" name="bottom"/>
    </contour>
  </outline>
</glyph>
<glyph name="section.smcp" format="1">
  <advance width="722"/>
  <outline>
    <contour>
      <point x="519" y="696"/>
      <point x="546" y="691"/>
      <point x="552" y="690" type="curve"/>
      <point x="514" y="677"/>
      <point x="464" y="643"/>
      <point x="464" y="595" type="curve" smooth="yes"/>
      <point x="464" y="558"/>
      <point x="495" y="531"/>
      <point x="547" y="531" type="curve" smooth="yes"/>
      <point x="612" y="531"/>
      <point x="670" y="572"/>
      <point x="670" y="628" type="curve" smooth="yes"/>
      <point x="670" y="659"/>
      <point x="652" y="678"/>
      <point x="626" y="690" type="curve" smooth="yes"/>
      <point x="596" y="704"/>
      <point x="550" y="714"/>
      <point x="495" y="714" type="curve" smooth="yes"/>
      <point x="376" y="714"/>
      <point x="183" y="668"/>
      <point x="183" y="537" type="curve" smooth="yes"/>
      <point x="183" y="495"/>
      <point x="203" y="460"/>
      <point x="266" y="421" type="curve" smooth="yes"/>
      <point x="511" y="270" type="line" smooth="yes"/>
      <point x="533" y="257"/>
      <point x="542" y="244"/>
      <point x="542" y="231" type="curve" smooth="yes"/>
      <point x="542" y="210"/>
      <point x="517" y="190"/>
      <point x="493" y="174" type="curve"/>
      <point x="502" y="161" type="line"/>
      <point x="583" y="188"/>
      <point x="696" y="233"/>
      <point x="696" y="323" type="curve" smooth="yes"/>
      <point x="696" y="366"/>
      <point x="670" y="385"/>
      <point x="633" y="408" type="curve" smooth="yes"/>
      <point x="413" y="544" type="line" smooth="yes"/>
      <point x="378" y="566"/>
      <point x="362" y="591"/>
      <point x="362" y="614" type="curve" smooth="yes"/>
      <point x="362" y="658"/>
      <point x="416" y="696"/>
      <point x="491" y="696" type="curve" smooth="yes"/>
    </contour>
    <contour>
      <point x="210" y="-77"/>
      <point x="183" y="-72"/>
      <point x="177" y="-71" type="curve"/>
      <point x="217" y="-58"/>
      <point x="266" y="-19"/>
      <point x="267" y="24" type="curve" smooth="yes"/>
      <point x="267" y="62"/>
      <point x="231" y="88"/>
      <point x="181" y="88" type="curve" smooth="yes"/>
      <point x="118" y="88"/>
      <point x="59" y="48"/>
      <point x="59" y="-9" type="curve" smooth="yes"/>
      <point x="59" y="-40"/>
      <point x="77" y="-59"/>
      <point x="103" y="-71" type="curve" smooth="yes"/>
      <point x="133" y="-85"/>
      <point x="180" y="-95"/>
      <point x="235" y="-95" type="curve" smooth="yes"/>
      <point x="354" y="-95"/>
      <point x="545" y="-47"/>
      <point x="545" y="80" type="curve" smooth="yes"/>
      <point x="545" y="125"/>
      <point x="522" y="160"/>
      <point x="463" y="197" type="curve" smooth="yes"/>
      <point x="218" y="349" type="line" smooth="yes"/>
      <point x="196" y="363"/>
      <point x="187" y="376"/>
      <point x="187" y="389" type="curve" smooth="yes"/>
      <point x="187" y="409"/>
      <point x="209" y="428"/>
      <point x="236" y="445" type="curve"/>
      <point x="227" y="458" type="line"/>
      <point x="122" y="413"/>
      <point x="34" y="379"/>
      <point x="34" y="295" type="curve" smooth="yes"/>
      <point x="34" y="254"/>
      <point x="60" y="233"/>
      <point x="96" y="211" type="curve" smooth="yes"/>
      <point x="316" y="75" type="line" smooth="yes"/>
      <point x="356" y="51"/>
      <point x="373" y="25"/>
      <point x="373" y="1" type="curve" smooth="yes"/>
      <point x="373" y="-42"/>
      <point x="315" y="-77"/>
      <point x="239" y="-77" type="curve" smooth="yes"/>
    </contour>
  </outline>
</glyph>
<glyph name="six.numr" format="1">
  <advance width="397"/>
  <outline>
    <contour>
      <point x="319" y="850"/>
      <point x="97" y="713"/>
      <point x="97" y="541" type="curve" smooth="yes"/>
      <point x="97" y="466"/>
      <point x="139" y="429"/>
      <point x="225" y="429" type="curve" smooth="yes"/>
      <point x="358" y="429"/>
      <point x="461" y="516"/>
      <point x="461" y="609" type="curve" smooth="yes"/>
      <point x="461" y="668"/>
      <point x="419" y="700"/>
      <point x="353" y="700" type="curve" smooth="yes"/>
      <point x="292" y="700"/>
      <point x="247" y="673"/>
      <point x="219" y="613" type="curve"/>
      <point x="225" y="600" type="line"/>
      <point x="250" y="658"/>
      <point x="293" y="672"/>
      <point x="312" y="672" type="curve" smooth="yes"/>
      <point x="330" y="672"/>
      <point x="340" y="658"/>
      <point x="340" y="622" type="curve" smooth="yes"/>
      <point x="340" y="549"/>
      <point x="300" y="451"/>
      <point x="246" y="451" type="curve" smooth="yes"/>
      <point x="226" y="451"/>
      <point x="216" y="465"/>
      <point x="216" y="513" type="curve" smooth="yes"/>
      <point x="216" y="686"/>
      <point x="343" y="824"/>
      <point x="459" y="852" type="curve"/>
      <point x="454" y="870" type="line"/>
    </contour>
  </outline>
</glyph>
<glyph name="uni0336.smcp" format="1">
  <advance width="884"/>
  <outline>
    <contour>
      <point x="69" y="454" type="line"/>
      <point x="64" y="434" type="line"/>
      <point x="907" y="434" type="line"/>
      <point x="912" y="454" type="line"/>
    </contour>
    <contour>
      <point x="488" y="444" type="move" name="_center"/>
    </contour>
  </outline>
</glyph>
<glyph name="uni0447.smcp" format="1">
  <advance width="787"/>
  <outline>
    <contour>
      <point x="424" y="106" type="line" smooth="yes"/>
      <point x="404" y="33"/>
      <point x="385" y="23"/>
      <point x="300" y="20" type="curve"/>
      <point x="295" y="0" type="line"/>
      <point x="340" y="2"/>
      <point x="418" y="3"/>
      <point x="492" y="3" type="curve" smooth="yes"/>
      <point x="568" y="3"/>
      <point x="640" y="2"/>
      <point x="680" y="0" type="curve"/>
      <point x="685" y="20" type="line"/>
      <point x="618" y="23"/>
      <point x="607" y="33"/>
      <point x="627" y="106" type="curve" smooth="yes"/>
      <point x="734" y="502" type="line" smooth="yes"/>
      <point x="754" y="575"/>
      <point x="769" y="585"/>
      <point x="838" y="588" type="curve"/>
      <point x="843" y="608" type="line"/>
      <point x="800" y="606"/>
      <point x="726" y="605"/>
      <point x="656" y="605" type="curve" smooth="yes"/>
      <point x="584" y="605"/>
      <point x="516" y="606"/>
      <point x="478" y="608" type="curve"/>
      <point x="473" y="588" type="line"/>
      <point x="540" y="585"/>
      <point x="551" y="575"/>
      <point x="531" y="502" type="curve" smooth="yes"/>
    </contour>
    <contour>
      <point x="88" y="432" type="line" smooth="yes"/>
      <point x="70" y="360"/>
      <point x="71" y="316"/>
      <point x="113" y="279" type="curve" smooth="yes"/>
      <point x="152" y="245"/>
      <point x="209" y="233"/>
      <point x="273" y="233" type="curve" smooth="yes"/>
      <point x="356" y="233"/>
      <point x="428" y="253"/>
      <point x="472" y="271" type="curve"/>
      <point x="476" y="288" type="line"/>
      <point x="446" y="273"/>
      <point x="393" y="265"/>
      <point x="356" y="265" type="curve" smooth="yes"/>
      <point x="267" y="265"/>
      <point x="254" y="311"/>
      <point x="281" y="405" type="curve" smooth="yes"/>
      <point x="312" y="515" type="line" smooth="yes"/>
      <point x="327" y="568"/>
      <point x="346" y="587"/>
      <point x="398" y="587" type="curve"/>
      <point x="403" y="608" type="line"/>
      <point x="372" y="607"/>
      <point x="303" y="604"/>
      <point x="243" y="604" type="curve" smooth="yes"/>
      <point x="183" y="604"/>
      <point x="117" y="607"/>
      <point x="88" y="608" type="curve"/>
      <point x="83" y="587" type="line"/>
      <point x="110" y="583"/>
      <point x="124" y="574"/>
      <point x="109" y="515" type="curve" smooth="yes"/>
    </contour>
  </outline>
</glyph>
<glyph name="uni0452.smcp" format="1">
  <advance width="1009"/>
  <outline>
    <contour>
      <point x="700" y="587"/>
      <point x="658" y="584"/>
      <point x="624" y="584" type="curve" smooth="yes"/>
      <point x="519" y="584"/>
      <point x="383" y="612"/>
      <point x="273" y="612" type="curve" smooth="yes"/>
      <point x="232" y="612"/>
      <point x="175" y="608"/>
      <point x="128" y="580" type="curve" smooth="yes"/>
      <point x="76" y="549"/>
      <point x="57" y="503"/>
      <point x="57" y="466" type="curve" smooth="yes"/>
      <point x="57" y="417"/>
      <point x="89" y="370"/>
      <point x="147" y="370" type="curve" smooth="yes"/>
      <point x="201" y="370"/>
      <point x="244" y="412"/>
      <point x="244" y="470" type="curve" smooth="yes"/>
      <point x="244" y="525"/>
      <point x="204" y="560"/>
      <point x="153" y="567" type="curve"/>
      <point x="179" y="586"/>
      <point x="218" y="594"/>
      <point x="270" y="594" type="curve" smooth="yes"/>
      <point x="372" y="594"/>
      <point x="504" y="564"/>
      <point x="629" y="564" type="curve" smooth="yes"/>
      <point x="674" y="564"/>
      <point x="747" y="568"/>
      <point x="801" y="598" type="curve" smooth="yes"/>
      <point x="848" y="624"/>
      <point x="867" y="662"/>
      <point x="867" y="696" type="curve" smooth="yes"/>
      <point x="867" y="745"/>
      <point x="829" y="786"/>
      <point x="769" y="786" type="curve" smooth="yes"/>
      <point x="707" y="786"/>
      <point x="670" y="743"/>
      <point x="670" y="689" type="curve" smooth="yes"/>
      <point x="670" y="646"/>
      <point x="693" y="612"/>
      <point x="720" y="594" type="curve"/>
    </contour>
    <contour>
      <point x="558" y="578" type="line"/>
      <point x="558" y="578"/>
      <point x="362" y="601"/>
      <point x="362" y="601" type="curve"/>
      <point x="233" y="113" type="line" smooth="yes"/>
      <point x="217" y="51"/>
      <point x="191" y="22"/>
      <point x="108" y="20" type="curve"/>
      <point x="103" y="0" type="line"/>
      <point x="152" y="2"/>
      <point x="209" y="3"/>
      <point x="244" y="3" type="curve" smooth="yes"/>
      <point x="315" y="3"/>
      <point x="362" y="-1"/>
      <point x="404" y="-11" type="curve"/>
    </contour>
    <contour>
      <point x="970" y="319"/>
      <point x="873" y="375"/>
      <point x="731" y="375" type="curve" smooth="yes"/>
      <point x="633" y="375"/>
      <point x="540" y="348"/>
      <point x="479" y="308" type="curve"/>
      <point x="474" y="284" type="line"/>
      <point x="507" y="313"/>
      <point x="569" y="331"/>
      <point x="623" y="331" type="curve" smooth="yes"/>
      <point x="713" y="331"/>
      <point x="757" y="282"/>
      <point x="757" y="189" type="curve" smooth="yes"/>
      <point x="757" y="89"/>
      <point x="707" y="11"/>
      <point x="624" y="11" type="curve" smooth="yes"/>
      <point x="601" y="11"/>
      <point x="578" y="17"/>
      <point x="562" y="24" type="curve"/>
      <point x="627" y="41"/>
      <point x="693" y="91"/>
      <point x="693" y="160" type="curve" smooth="yes"/>
      <point x="693" y="204"/>
      <point x="666" y="227"/>
      <point x="619" y="227" type="curve" smooth="yes"/>
      <point x="548" y="227"/>
      <point x="483" y="173"/>
      <point x="483" y="101" type="curve" smooth="yes"/>
      <point x="483" y="14"/>
      <point x="570" y="-14"/>
      <point x="645" y="-14" type="curve" smooth="yes"/>
      <point x="809" y="-14"/>
      <point x="970" y="75"/>
      <point x="970" y="212" type="curve" smooth="yes"/>
    </contour>
  </outline>
</glyph>
<glyph name="uni0454.smcp" format="1">
  <advance width="690"/>
  <outline>
    <contour>
      <point x="542" y="197"/>
      <point x="595" y="263"/>
      <point x="656" y="380" type="curve"/>
      <point x="643" y="389" type="line"/>
      <point x="615" y="355"/>
      <point x="591" y="345"/>
      <point x="566" y="345" type="curve" smooth="yes"/>
      <point x="499" y="345"/>
      <point x="467" y="417"/>
      <point x="397" y="417" type="curve" smooth="yes"/>
      <point x="336" y="417"/>
      <point x="293" y="365"/>
      <point x="232" y="249" type="curve"/>
      <point x="229" y="221" type="line"/>
      <point x="252" y="262"/>
      <point x="268" y="269"/>
      <point x="290" y="269" type="curve" smooth="yes"/>
      <point x="362" y="269"/>
      <point x="400" y="197"/>
      <point x="473" y="197" type="curve" smooth="yes"/>
    </contour>
    <contour>
      <point x="397" y="-14"/>
      <point x="451" y="14"/>
      <point x="504" y="51" type="curve" smooth="yes"/>
      <point x="527" y="67"/>
      <point x="537" y="61"/>
      <point x="537" y="34" type="curve" smooth="yes"/>
      <point x="537" y="25"/>
      <point x="536" y="14"/>
      <point x="534" y="0" type="curve"/>
      <point x="556" y="0" type="line"/>
      <point x="564" y="43"/>
      <point x="579" y="99"/>
      <point x="605" y="200" type="curve"/>
      <point x="583" y="200" type="line"/>
      <point x="554" y="142"/>
      <point x="536" y="111"/>
      <point x="503" y="82" type="curve" smooth="yes"/>
      <point x="453" y="31"/>
      <point x="382" y="4"/>
      <point x="323" y="4" type="curve" smooth="yes"/>
      <point x="267" y="4"/>
      <point x="232" y="64"/>
      <point x="232" y="176" type="curve" smooth="yes"/>
      <point x="232" y="365"/>
      <point x="345" y="604"/>
      <point x="483" y="604" type="curve" smooth="yes"/>
      <point x="543" y="604"/>
      <point x="594" y="578"/>
      <point x="620" y="526" type="curve" smooth="yes"/>
      <point x="630" y="506"/>
      <point x="644" y="476"/>
      <point x="646" y="435" type="curve"/>
      <point x="668" y="435" type="line"/>
      <point x="681" y="511"/>
      <point x="700" y="559"/>
      <point x="717" y="608" type="curve"/>
      <point x="695" y="608" type="line"/>
      <point x="675" y="553"/>
      <point x="657" y="536"/>
      <point x="640" y="557" type="curve" smooth="yes"/>
      <point x="611" y="591"/>
      <point x="572" y="622"/>
      <point x="492" y="622" type="curve" smooth="yes"/>
      <point x="203" y="622"/>
      <point x="22" y="393"/>
      <point x="22" y="196" type="curve" smooth="yes"/>
      <point x="22" y="61"/>
      <point x="132" y="-14"/>
      <point x="314" y="-14" type="curve" smooth="yes"/>
    </contour>
  </outline>
</glyph>
<glyph name="z.smcp" format="1">
  <advance width="662"/>
  <outline>
    <contour>
      <point x="502" y="296" type="line"/>
      <point x="502" y="296"/>
      <point x="510" y="316"/>
      <point x="510" y="316" type="curve"/>
      <point x="157" y="316" type="line"/>
      <point x="150" y="296" type="line"/>
    </contour>
    <contour>
      <point x="493" y="205"/>
      <point x="511" y="188"/>
      <point x="511" y="169" type="curve" smooth="yes"/>
      <point x="511" y="152"/>
      <point x="499" y="146"/>
      <point x="482" y="146" type="curve" smooth="yes"/>
      <point x="436" y="146"/>
      <point x="392" y="182"/>
      <point x="299" y="182" type="curve" smooth="yes"/>
      <point x="212" y="182"/>
      <point x="161" y="117"/>
      <point x="55" y="68" type="curve"/>
      <point x="635" y="538" type="line"/>
      <point x="667" y="548"/>
      <point x="732" y="585"/>
      <point x="706" y="611" type="curve" smooth="yes"/>
      <point x="678" y="639"/>
      <point x="628" y="577"/>
      <point x="616" y="560" type="curve"/>
      <point x="589" y="551"/>
      <point x="566" y="545"/>
      <point x="538" y="545" type="curve" smooth="yes"/>
      <point x="415" y="545"/>
      <point x="365" y="622"/>
      <point x="239" y="622" type="curve" smooth="yes"/>
      <point x="140" y="622"/>
      <point x="78" y="566"/>
      <point x="78" y="489" type="curve" smooth="yes"/>
      <point x="78" y="416"/>
      <point x="153" y="384"/>
      <point x="224" y="373" type="curve"/>
      <point x="224" y="373"/>
      <point x="229" y="392"/>
      <point x="229" y="392" type="curve"/>
      <point x="174" y="403"/>
      <point x="156" y="420"/>
      <point x="156" y="439" type="curve" smooth="yes"/>
      <point x="156" y="456"/>
      <point x="168" y="462"/>
      <point x="185" y="462" type="curve" smooth="yes"/>
      <point x="231" y="462"/>
      <point x="275" y="426"/>
      <point x="368" y="426" type="curve" smooth="yes"/>
      <point x="452" y="426"/>
      <point x="505" y="491"/>
      <point x="611" y="540" type="curve"/>
      <point x="31" y="70" type="line"/>
      <point x="9" y="61"/>
      <point x="-61" y="28"/>
      <point x="-41" y="-2" type="curve" smooth="yes"/>
      <point x="-16" y="-34"/>
      <point x="39" y="29"/>
      <point x="50" y="48" type="curve"/>
      <point x="77" y="57"/>
      <point x="100" y="63"/>
      <point x="128" y="63" type="curve" smooth="yes"/>
      <point x="251" y="63"/>
      <point x="301" y="-14"/>
      <point x="427" y="-14" type="curve" smooth="yes"/>
      <point x="526" y="-14"/>
      <point x="588" y="42"/>
      <point x="588" y="119" type="curve" smooth="yes"/>
      <point x="588" y="192"/>
      <point x="513" y="224"/>
      <point x="442" y="235" type="curve"/>
      <point x="442" y="235"/>
      <point x="438" y="216"/>
      <point x="438" y="216" type="curve"/>
    </contour>
    <contour>
      <point x="441" y="608" type="move" name="top"/>
    </contour>
    <contour>
      <point x="223" y="0" type="move" name="bottom"/>
    </contour>
  </outline>
</glyph>
<glyph name="zero.subs" format="1">
  <advance width="465"/>
  <outline>
    <contour>
      <point x="73" y="218"/>
      <point x="-47" y="100"/>
      <point x="-47" y="-15" type="curve" smooth="yes"/>
      <point x="-47" y="-99"/>
      <point x="15" y="-147"/>
      <point x="112" y="-147" type="curve" smooth="yes"/>
      <point x="252" y="-147"/>
      <point x="373" y="-29"/>
      <point x="373" y="87" type="curve" smooth="yes"/>
      <point x="373" y="169"/>
      <point x="312" y="218"/>
      <point x="214" y="218" type="curve" smooth="yes"/>
    </contour>
    <contour>
      <point x="232" y="198"/>
      <point x="253" y="176"/>
      <point x="253" y="98" type="curve" smooth="yes"/>
      <point x="253" y="4"/>
      <point x="204" y="-127"/>
      <point x="120" y="-127" type="curve" smooth="yes"/>
      <point x="94" y="-127"/>
      <point x="73" y="-105"/>
      <point x="73" y="-26" type="curve" smooth="yes"/>
      <point x="73" y="68"/>
      <point x="122" y="198"/>
      <point x="206" y="198" type="curve" smooth="yes"/>
    </contour>
  </outline>
</glyph>
